/* XPM */
static char * info_xpm[] = {
"32 32 626 2",
"  	c None",
". 	c #CFD4DE",
"+ 	c #8194B3",
"@ 	c #4D6894",
"# 	c #28497C",
"$ 	c #2B4C82",
"% 	c #294A80",
"& 	c #2F4E81",
"* 	c #516B96",
"= 	c #8B9CB8",
"- 	c #D5D9E1",
"; 	c #E7E9ED",
"> 	c #7589A9",
", 	c #3D5F96",
"' 	c #3660A0",
") 	c #6585B5",
"! 	c #92A8CD",
"~ 	c #A6BAD9",
"{ 	c #B1C3DF",
"] 	c #AEC1DF",
"^ 	c #A1B6D7",
"/ 	c #88A2C8",
"( 	c #5175AD",
"_ 	c #305A9C",
": 	c #406196",
"< 	c #7E90AB",
"[ 	c #9FAEC4",
"} 	c #2D518B",
"| 	c #476CA6",
"1 	c #92AED9",
"2 	c #E2EBF9",
"3 	c #FFFFFF",
"4 	c #FDFEFF",
"5 	c #CAD9F1",
"6 	c #7D9DCE",
"7 	c #305898",
"8 	c #406195",
"9 	c #AAB6C8",
"0 	c #375687",
"a 	c #265196",
"b 	c #A6BDE1",
"c 	c #EFF3FB",
"d 	c #F5F7FC",
"e 	c #EFF2F9",
"f 	c #EBEFF7",
"g 	c #EAEEF7",
"h 	c #E8EDF6",
"i 	c #E9EEF7",
"j 	c #F3F5FA",
"k 	c #F6F8FC",
"l 	c #E9F0FA",
"m 	c #7698CF",
"n 	c #17458F",
"o 	c #61789C",
"p 	c #34568E",
"q 	c #5D81BA",
"r 	c #C4D4EC",
"s 	c #E7EDF4",
"t 	c #DEE5F1",
"u 	c #DBE3F0",
"v 	c #DAE2EF",
"w 	c #D9E1F0",
"x 	c #E2E9F3",
"y 	c #E5EBF4",
"z 	c #DDE5F1",
"A 	c #DCE3F0",
"B 	c #E0E6F1",
"C 	c #E3E9F4",
"D 	c #ABC1E3",
"E 	c #2B59A3",
"F 	c #4D6997",
"G 	c #35588F",
"H 	c #567CB7",
"I 	c #D6E1F3",
"J 	c #D5DDED",
"K 	c #CCD8E9",
"L 	c #CDD8E9",
"M 	c #CCD7E9",
"N 	c #CFD9EA",
"O 	c #E9EDF5",
"P 	c #FEFEFF",
"Q 	c #F6F7FB",
"R 	c #D4DDEC",
"S 	c #CBD6E9",
"T 	c #CED8E9",
"U 	c #D9E1EE",
"V 	c #B2C7E8",
"W 	c #27559D",
"X 	c #536E99",
"Y 	c #3E5B8B",
"Z 	c #5279B6",
"` 	c #C5D4EC",
" .	c #C0CEE4",
"..	c #BECCE4",
"+.	c #BBCAE3",
"@.	c #F1F4F8",
"#.	c #BBC9E0",
"$.	c #BDCBE4",
"%.	c #C9D4E8",
"&.	c #9FB9E1",
"*.	c #23529D",
"=.	c #778AA9",
"-.	c #97A7C0",
";.	c #28559C",
">.	c #A5BBDF",
",.	c #B5C4E0",
"'.	c #B0C1DE",
").	c #B0C1DF",
"!.	c #ACBEDE",
"~.	c #DDE5F2",
"{.	c #FAFBFD",
"].	c #B1C1DB",
"^.	c #AEC0DE",
"/.	c #B9C8E2",
"(.	c #7F9FD2",
"_.	c #154188",
":.	c #9AA7BD",
"<.	c #375A93",
"[.	c #789AD0",
"}.	c #A9BCDC",
"|.	c #A1B6D8",
"1.	c #A1B7D9",
"2.	c #A2B7D9",
"3.	c #A2B7DA",
"4.	c #9EB5D9",
"5.	c #BFCEE6",
"6.	c #FCFCFE",
"7.	c #D8E0ED",
"8.	c #99B0D1",
"9.	c #A2B8DA",
"0.	c #A1B6D9",
"a.	c #A3B7D9",
"b.	c #A2B7DB",
"c.	c #4270BA",
"d.	c #456498",
"e.	c #7589AA",
"f.	c #2E5A9E",
"g.	c #99B3DA",
"h.	c #95ACD4",
"i.	c #94ACD4",
"j.	c #94ADD4",
"k.	c #94ACD5",
"l.	c #94AED5",
"m.	c #94AED6",
"n.	c #8FABD5",
"o.	c #B1C5E1",
"p.	c #EBF0F6",
"q.	c #F3F6F9",
"r.	c #CCD7E8",
"s.	c #8CA5CB",
"t.	c #8EA9D0",
"u.	c #95AED7",
"v.	c #94ADD5",
"w.	c #93ACD4",
"x.	c #95AED5",
"y.	c #98B0D6",
"z.	c #9BB1D6",
"A.	c #84A4D6",
"B.	c #2757A0",
"C.	c #42669C",
"D.	c #5884C3",
"E.	c #8BA7D1",
"F.	c #85A3CF",
"G.	c #86A3D0",
"H.	c #86A4D1",
"I.	c #86A5D1",
"J.	c #86A5D2",
"K.	c #85A5D2",
"L.	c #82A3D0",
"M.	c #89A7D3",
"N.	c #8BA8D2",
"O.	c #7F9FCC",
"P.	c #81A1CE",
"Q.	c #87A6D2",
"R.	c #86A6D2",
"S.	c #87A5D1",
"T.	c #8AA7D2",
"U.	c #8BA7D3",
"V.	c #82A1CF",
"W.	c #6489C3",
"X.	c #4D77B9",
"Y.	c #406DB4",
"Z.	c #265DAB",
"`.	c #486593",
" +	c #3262A3",
".+	c #6F99D0",
"++	c #7999CA",
"@+	c #789ACB",
"#+	c #789ACC",
"$+	c #789BCC",
"%+	c #789BCD",
"&+	c #799BCD",
"*+	c #769ACC",
"=+	c #6D94CA",
"-+	c #7196CB",
";+	c #7399CC",
">+	c #749ACD",
",+	c #779BCE",
"'+	c #7A9ED0",
")+	c #7C9FD0",
"!+	c #799DCE",
"~+	c #799CCE",
"{+	c #7B9ECE",
"]+	c #779ACC",
"^+	c #668EC6",
"/+	c #517EBE",
"(+	c #3164B1",
"_+	c #2158AA",
":+	c #1E56A9",
"<+	c #1F55A7",
"[+	c #2761B2",
"}+	c #26508F",
"|+	c #9AAAC3",
"1+	c #3368AB",
"2+	c #6D96CD",
"3+	c #698EC6",
"4+	c #6A8FC7",
"5+	c #6A90C7",
"6+	c #6A91C9",
"7+	c #6A92C9",
"8+	c #6790C9",
"9+	c #7A9ECF",
"0+	c #B8CBE6",
"a+	c #C0D1E9",
"b+	c #C6D6EA",
"c+	c #D1DEEF",
"d+	c #DAE4F2",
"e+	c #E6EDF7",
"f+	c #DEE7F4",
"g+	c #6E96CB",
"h+	c #6A93CA",
"i+	c #6B93CB",
"j+	c #5A86C5",
"k+	c #3369B6",
"l+	c #255FB0",
"m+	c #215CAE",
"n+	c #235CAE",
"o+	c #255DAE",
"p+	c #255BAC",
"q+	c #2763B4",
"r+	c #2158A0",
"s+	c #B1BACB",
"t+	c #627BA4",
"u+	c #346CAF",
"v+	c #5F8AC6",
"w+	c #5B86C2",
"x+	c #5B87C3",
"y+	c #5B88C4",
"z+	c #5C88C5",
"A+	c #5C89C5",
"B+	c #5C8AC6",
"C+	c #5988C5",
"D+	c #6C95CD",
"E+	c #C8D8EC",
"F+	c #F4F7FA",
"G+	c #5E89BF",
"H+	c #497DC0",
"I+	c #356EBA",
"J+	c #2764B4",
"K+	c #2561B3",
"L+	c #2663B3",
"M+	c #2762B2",
"N+	c #2761B1",
"O+	c #2760B0",
"P+	c #265FAF",
"Q+	c #265DAE",
"R+	c #2662B2",
"S+	c #1C60AC",
"T+	c #9AAAC4",
"U+	c #4C6A9A",
"V+	c #306DB3",
"W+	c #507FC1",
"X+	c #4D7DBF",
"Y+	c #4D7EC0",
"Z+	c #4D7FC1",
"`+	c #4E80C2",
" @	c #4E81C3",
".@	c #4C80C3",
"+@	c #4379C0",
"@@	c #7BA2D2",
"#@	c #F0F5FA",
"$@	c #F1F5F9",
"%@	c #3E72B4",
"&@	c #2263B6",
"*@	c #2565B6",
"=@	c #2866B7",
"-@	c #2866B6",
";@	c #2865B6",
">@	c #2864B4",
",@	c #2763B3",
"'@	c #275FB0",
")@	c #2662B3",
"!@	c #1A64B1",
"~@	c #8CA0BE",
"{@	c #466799",
"]@	c #296CB3",
"^@	c #4174BD",
"/@	c #4075BC",
"(@	c #4076BE",
"_@	c #4076BF",
":@	c #3F77BF",
"<@	c #4077C0",
"[@	c #4178C1",
"}@	c #4179C1",
"|@	c #417AC2",
"1@	c #3F79C1",
"2@	c #3270BE",
"3@	c #BED2EB",
"4@	c #EEF2F8",
"5@	c #2D68B0",
"6@	c #2567B9",
"7@	c #296ABA",
"8@	c #2969BA",
"9@	c #2969B9",
"0@	c #2868B8",
"a@	c #2865B5",
"b@	c #2762B3",
"c@	c #2664B5",
"d@	c #1766B2",
"e@	c #8298B9",
"f@	c #4B6C9D",
"g@	c #1B65B0",
"h@	c #326BB9",
"i@	c #316CB9",
"j@	c #316DBB",
"k@	c #316FBB",
"l@	c #326FBC",
"m@	c #3270BD",
"n@	c #3271BD",
"o@	c #3271BE",
"p@	c #3272BF",
"q@	c #3172BF",
"r@	c #296CBD",
"s@	c #BBD0EA",
"t@	c #EEF3F8",
"u@	c #2F6BB2",
"v@	c #266ABB",
"w@	c #2A6CBD",
"x@	c #296BBC",
"y@	c #296ABB",
"z@	c #296AB9",
"A@	c #2967B8",
"B@	c #2867B7",
"C@	c #2764B5",
"D@	c #2666B7",
"E@	c #1467B3",
"F@	c #879EBD",
"G@	c #5D78A3",
"H@	c #1161AC",
"I@	c #2869B9",
"J@	c #2968B8",
"K@	c #2A6BBA",
"L@	c #2A6CBB",
"M@	c #2A6DBC",
"N@	c #2A6DBD",
"O@	c #2A6EBD",
"P@	c #2B6FBE",
"Q@	c #2A6FBE",
"R@	c #2169BC",
"S@	c #B9D0EA",
"T@	c #2F6DB4",
"U@	c #276DBE",
"V@	c #2A6EBF",
"W@	c #2A6EBE",
"X@	c #2669B9",
"Y@	c #1067B1",
"Z@	c #98AAC6",
"`@	c #889AB8",
" #	c #0F63AB",
".#	c #266EBD",
"+#	c #2B6ABA",
"@#	c #2B6DBD",
"##	c #2B6EBE",
"$#	c #2B6FBF",
"%#	c #2B70BF",
"&#	c #2B71C0",
"*#	c #2C72C1",
"=#	c #2B72C1",
"-#	c #216BBF",
";#	c #B9D0EB",
">#	c #EFF3F8",
",#	c #316FB5",
"'#	c #2870C0",
")#	c #2B71C2",
"!#	c #2B71C1",
"~#	c #2A6FC0",
"{#	c #2A6FBF",
"]#	c #2A6BBC",
"^#	c #2A68B9",
"/#	c #236FBD",
"(#	c #1362A9",
"_#	c #AEB9CD",
":#	c #1C67A9",
"<#	c #2477C2",
"[#	c #2A6CBC",
"}#	c #2B72C0",
"|#	c #2C72C2",
"1#	c #2D73C3",
"2#	c #3075C4",
"3#	c #3175C4",
"4#	c #2A71C2",
"5#	c #BCD2EC",
"6#	c #3873B7",
"7#	c #3074C3",
"8#	c #3176C4",
"9#	c #2F74C4",
"0#	c #2B70C0",
"a#	c #2A6ABB",
"b#	c #2273C0",
"c#	c #1D5C9C",
"d#	c #C7CCD9",
"e#	c #3D71A8",
"f#	c #247BC3",
"g#	c #2A6DBF",
"h#	c #2C72C3",
"i#	c #2E74C3",
"j#	c #3276C5",
"k#	c #3578C6",
"l#	c #3879C7",
"m#	c #3A7AC7",
"n#	c #3376C6",
"o#	c #BFD4ED",
"p#	c #EFF4F8",
"q#	c #3F77B8",
"r#	c #3979C6",
"s#	c #3A7BC7",
"t#	c #3076C4",
"u#	c #2E73C3",
"v#	c #2B72C2",
"w#	c #2A70C1",
"x#	c #2273BB",
"y#	c #3B629A",
"z#	c #6780AB",
"A#	c #1F6BB0",
"B#	c #2D76C4",
"C#	c #2F75C4",
"D#	c #3779C6",
"E#	c #3B7CC8",
"F#	c #3E7EC9",
"G#	c #407FCA",
"H#	c #4180CA",
"I#	c #3C7CC8",
"J#	c #C2D6EE",
"K#	c #F0F4F9",
"L#	c #467BBA",
"M#	c #417FCA",
"N#	c #4280CB",
"O#	c #3D7EC9",
"P#	c #397BC7",
"Q#	c #3076C5",
"R#	c #2D74C3",
"S#	c #2E7AC6",
"T#	c #236DB1",
"U#	c #8D9EBE",
"V#	c #2F63A0",
"W#	c #3B88CD",
"X#	c #3176C5",
"Y#	c #3679C6",
"Z#	c #3B7DC7",
"`#	c #3F7FC8",
" $	c #4381CA",
".$	c #4683CB",
"+$	c #4984CC",
"@$	c #4A85CC",
"#$	c #4581CB",
"$$	c #C4D7EE",
"%$	c #F0F4F8",
"&$	c #4B7DBB",
"*$	c #4B86CD",
"=$	c #4884CC",
"-$	c #4483CB",
";$	c #3D7DC8",
">$	c #3477C5",
",$	c #3177C5",
"'$	c #398ACD",
")$	c #4273AB",
"!$	c #7F96BB",
"~$	c #3A7EBE",
"{$	c #4286CE",
"]$	c #4783CB",
"^$	c #4F88CE",
"/$	c #5289CF",
"($	c #4F88CF",
"_$	c #4984CD",
":$	c #CBDCF1",
"<$	c #F6F9FB",
"[$	c #5F8CC2",
"}$	c #4B84CC",
"|$	c #548BD0",
"1$	c #518ACF",
"2$	c #4D87CE",
"3$	c #4985CD",
"4$	c #4581CA",
"5$	c #3D7CC7",
"6$	c #3577C4",
"7$	c #3E85CB",
"8$	c #2C69AB",
"9$	c #375E9A",
"0$	c #5090CD",
"a$	c #4C89CF",
"b$	c #4883CC",
"c$	c #538BD0",
"d$	c #558CD1",
"e$	c #5A8FD2",
"f$	c #77A2DA",
"g$	c #B3CBEA",
"h$	c #DDE7F3",
"i$	c #89AEDE",
"j$	c #5F92D3",
"k$	c #578ED2",
"l$	c #548CD1",
"m$	c #528AD0",
"n$	c #4A81C5",
"o$	c #507CB2",
"p$	c #5783B4",
"q$	c #5583AD",
"r$	c #52688F",
"s$	c #4471AB",
"t$	c #6099D4",
"u$	c #578FD2",
"v$	c #538ACF",
"w$	c #5D91D3",
"x$	c #6395D5",
"y$	c #BED2EE",
"z$	c #E1E8F2",
"A$	c #D8E1ED",
"B$	c #D6E0ED",
"C$	c #D6DFED",
"D$	c #DDE5EF",
"E$	c #CED9E8",
"F$	c #6891C6",
"G$	c #5D90D2",
"H$	c #588ED3",
"I$	c #4B80C3",
"J$	c #6091CB",
"K$	c #537BB7",
"L$	c #9EADC8",
"M$	c #4872AD",
"N$	c #70A3DA",
"O$	c #6B9EDA",
"P$	c #6092D4",
"Q$	c #6596D5",
"R$	c #6B99D7",
"S$	c #6C9AD8",
"T$	c #6793CE",
"U$	c #6690C9",
"V$	c #6891CA",
"W$	c #6891C9",
"X$	c #658FC9",
"Y$	c #648EC8",
"Z$	c #648FC9",
"`$	c #6897D5",
" %	c #6496D6",
".%	c #6093D7",
"+%	c #BBC5D9",
"@%	c #3D65A4",
"#%	c #719DD3",
"$%	c #88B2E6",
"%%	c #739FDB",
"&%	c #6E9BD8",
"*%	c #739EDA",
"=%	c #78A2DC",
"-%	c #7AA4DD",
";%	c #7CA4DE",
">%	c #7CA5DF",
",%	c #7CA5DE",
"'%	c #7BA4DE",
")%	c #79A3DE",
"!%	c #77A2DC",
"~%	c #729FDA",
"{%	c #6E9BD9",
"]%	c #73A0DC",
"^%	c #87B3E8",
"/%	c #658EC2",
"(%	c #768EB6",
"_%	c #5078B6",
":%	c #89ACDE",
"<%	c #9FBFEE",
"[%	c #8EB1E6",
"}%	c #82A9E1",
"|%	c #81A8E0",
"1%	c #81A7E0",
"2%	c #82A8E0",
"3%	c #81A7DF",
"4%	c #80A7DF",
"5%	c #82A8E1",
"6%	c #90B4E7",
"7%	c #9CBDEC",
"8%	c #81A5DA",
"9%	c #7187AB",
"0%	c #90A1BC",
"a%	c #6582B3",
"b%	c #7A98CA",
"c%	c #8DA9DA",
"d%	c #99B4E4",
"e%	c #A6BFEC",
"f%	c #A7C1ED",
"g%	c #A7C1EE",
"h%	c #A6C0EE",
"i%	c #A7C1EC",
"j%	c #A5BEEB",
"k%	c #97B2E3",
"l%	c #8AA8D9",
"m%	c #7795C8",
"n%	c #6380B1",
"o%	c #A6B3C9",
"p%	c #DFDFDF",
"q%	c #BAC2CF",
"r%	c #7B91B9",
"s%	c #5A79B1",
"t%	c #5576B4",
"u%	c #6181BD",
"v%	c #7691C9",
"w%	c #738FC8",
"x%	c #5F7FBD",
"y%	c #5274B3",
"z%	c #5B7AB2",
"A%	c #879BBE",
"B%	c #C2C8D2",
"C%	c #C4CAD5",
"D%	c #B8C1D1",
"E%	c #B3BDCF",
"F%	c #B4BECF",
"G%	c #BAC3D2",
"H%	c #C7CDD7",
"I%	c #DEDFE1",
"                      . + @ # $ % & * = -                       ",
"                ; > , ' ) ! ~ { ] ^ / ( _ : <                   ",
"              [ } | 1 2 3 3 3 3 3 3 3 4 5 6 7 8 9               ",
"            0 a b c d e f g h h i g g f j k l m n o             ",
"          p q r s t u u v w x y z v A u u A B C D E F           ",
"        G H I J K L L M N O P 3 Q R S L L L L T U V W X         ",
"      Y Z `  .........+.A 3 3 3 3 @.#.$...........%.&.*.=.      ",
"    -.;.>.,.'.'.).).).!.~.3 3 3 3 {.].^.).).).).'.'./.(._.:.    ",
"    <.[.}.|.1.2.2.3.3.4.5.6.3 3 3 7.8.9.9.3.3.2.2.0.a.b.c.d.    ",
"  e.f.g.h.i.j.k.l.l.m.m.n.o.p.q.r.s.t.u.m.l.l.v.w.x.y.z.A.B.    ",
"  C.D.E.F.G.G.H.I.I.I.J.K.L.M.N.O.P.Q.R.J.I.S.T.U.V.W.X.Y.Z.`.  ",
"   +.+++@+#+#+$+%+&+*+=+-+;+>+,+'+)+!+~+~+{+]+^+/+(+_+:+<+[+}+  ",
"|+1+2+3+4+5+6+6+7+8+9+0+a+b+c+d+e+f+g+h+i+j+k+l+m+n+o+o+p+q+r+s+",
"t+u+v+w+x+y+z+A+B+C+D+E+{.3 3 3 3 F+G+H+I+J+K+L+M+N+O+P+Q+R+S+T+",
"U+V+W+X+Y+Z+Z+`+ @ @.@+@@@#@3 3 3 $@%@&@*@=@-@;@>@q+,@[+'@)@!@~@",
"{@]@^@/@(@_@:@<@[@}@|@1@2@3@3 3 3 4@5@6@7@8@9@0@=@-@a@q+b@c@d@e@",
"f@g@h@i@j@k@l@m@n@o@p@q@r@s@3 3 3 t@u@v@w@x@y@z@9@A@B@-@C@D@E@F@",
"G@H@I@J@9@K@L@M@N@O@P@Q@R@S@3 3 3 t@T@U@V@W@N@w@x@y@8@J@=@X@Y@Z@",
"`@ #.#+#L@@###$#%#&#*#=#-#;#3 3 3 >#,#'#)#!#~#{#W@N@]#7@^#/#(#_#",
"  :#<#[#W@%#&#}#|#1#2#3#4#5#3 3 3 >#6#7#8#9#1#!#0#{#W@N@a#b#c#d#",
"  e#f#g#{#=#h#i#j#k#l#m#n#o#3 3 3 p#q#r#s#l#k#t#u#v#w#{#g#x#y#  ",
"  z#A#B#v#C#j#D#E#F#G#H#I#J#3 3 3 K#L#M#N#M#O#P#k#Q#R#w#S#T#U#  ",
"    V#W#X#Y#Z#`# $.$+$@$#$$$3 3 3 %$&$@$*$=$-$H#;$P#>$,$'$)$    ",
"    !$~${$I# $]$*$^$/$($_$:$3 3 3 <$[$}$|$1$2$3$4$5$6$7$8$_#    ",
"      9$0$a$b$^$c$d$e$f$g$4 3 3 3 3 h$i$j$k$l$m$n$o$p$q$r$      ",
"        s$t$u$v$e$w$x$y$z$A$B$B$B$C$D$E$F$G$w$H$I$J$J$K$        ",
"        L$M$N$O$P$Q$R$S$T$U$V$V$W$U$X$Y$Z$`$ %.%J$J$K$          ",
"          +%@%#%$%%%&%*%=%-%;%>%,%'%)%!%~%{%]%^%/%K$            ",
"              (%_%:%<%[%}%|%1%2%2%3%4%5%6%7%8%K$9%              ",
"                0%a%b%c%d%e%f%g%h%i%j%k%l%m%n%o%                ",
"                  p%q%r%s%t%u%v%w%x%y%z%A%B%                    ",
"                          C%D%E%F%G%H%I%                        "};
