/* XPM */
static char * info_xpm[] = {
"32 32 356 2",
"  	c None",
". 	c #0067CC",
"+ 	c #086BCD",
"@ 	c #2478CF",
"# 	c #327ED0",
"$ 	c #317DCF",
"% 	c #1D72CC",
"& 	c #0E6CCC",
"* 	c #0266CB",
"= 	c #0468CC",
"- 	c #0769CD",
"; 	c #488CD5",
"> 	c #7BA9DE",
", 	c #90B4E1",
"' 	c #86ADDD",
") 	c #80A8DB",
"! 	c #80A7DA",
"~ 	c #80A6D9",
"{ 	c #80A5D8",
"] 	c #6D98D3",
"^ 	c #4682CC",
"/ 	c #1066C6",
"( 	c #0769CA",
"_ 	c #0368CD",
": 	c #4188D4",
"< 	c #95BAE4",
"[ 	c #92B7E3",
"} 	c #80ABDE",
"| 	c #80AADD",
"1 	c #80A9DC",
"2 	c #80A4D7",
"3 	c #7DA1D5",
"4 	c #497FC7",
"5 	c #0560C4",
"6 	c #0F6BC8",
"7 	c #0D6CCD",
"8 	c #71A5DD",
"9 	c #9FC1E7",
"0 	c #84B0E1",
"a 	c #80ACDF",
"b 	c #87AEDE",
"c 	c #94B6E1",
"d 	c #81A8DA",
"e 	c #80A3D6",
"f 	c #80A2D5",
"g 	c #6A91CD",
"h 	c #1460BD",
"i 	c #0A6AC9",
"j 	c #1670CE",
"k 	c #7DACE0",
"l 	c #A0C3E9",
"m 	c #81AFE1",
"n 	c #80AEE1",
"o 	c #80ADE0",
"p 	c #A9C6E9",
"q 	c #FAFCFE",
"r 	c #FFFFFF",
"s 	c #E6EEF8",
"t 	c #88ADDC",
"u 	c #7599D0",
"v 	c #1257B6",
"w 	c #0565C8",
"x 	c #0D6DCD",
"y 	c #72A6DD",
"z 	c #9BBEE6",
"A 	c #79A9DE",
"B 	c #78A8DE",
"C 	c #78A7DD",
"D 	c #78A6DC",
"E 	c #78A5DB",
"F 	c #F2F6FB",
"G 	c #BBCFEA",
"H 	c #789FD5",
"I 	c #789ED4",
"J 	c #789DD3",
"K 	c #789CD2",
"L 	c #789BD1",
"M 	c #789AD0",
"N 	c #6B8FCA",
"O 	c #0951B5",
"P 	c #0B6AC9",
"Q 	c #5594D7",
"R 	c #95B9E3",
"S 	c #73A4DC",
"T 	c #6EA1DB",
"U 	c #6EA0DA",
"V 	c #6E9FD9",
"W 	c #6F9FD8",
"X 	c #F8FAFD",
"Y 	c #C0D3EC",
"Z 	c #6E98D2",
"` 	c #6E96D0",
" .	c #6E95CF",
"..	c #6E94CE",
"+.	c #6E93CD",
"@.	c #6E92CC",
"#.	c #6E91CB",
"$.	c #4874BD",
"%.	c #0052B8",
"&.	c #1C70C3",
"*.	c #2D7DD0",
"=.	c #81AADD",
"-.	c #73A2D9",
";.	c #6499D6",
">.	c #649AD7",
",.	c #6497D4",
"'.	c #6496D3",
").	c #B5CDEA",
"!.	c #F7F9FD",
"~.	c #7EA4D6",
"{.	c #6490CD",
"].	c #648FCC",
"^.	c #648DCA",
"/.	c #648CC9",
"(.	c #648BC8",
"_.	c #648AC7",
":.	c #6489C6",
"<.	c #6488C5",
"[.	c #1D52AC",
"}.	c #0060C5",
"|.	c #086ACD",
"1.	c #5E96D6",
"2.	c #7FA6D9",
"3.	c #5A90D2",
"4.	c #5A91D3",
"5.	c #5A92D4",
"6.	c #5A8FD1",
"7.	c #5A8ED0",
"8.	c #5A8CCE",
"9.	c #87ABDB",
"0.	c #9EBAE1",
"a.	c #6E97D1",
"b.	c #5A88CA",
"c.	c #5A87C9",
"d.	c #5A86C8",
"e.	c #5A85C7",
"f.	c #5A83C5",
"g.	c #5A82C4",
"h.	c #5A81C3",
"i.	c #5A80C2",
"j.	c #5A7FC1",
"k.	c #436DB8",
"l.	c #004BB0",
"m.	c #126CC5",
"n.	c #0066CC",
"o.	c #2B7BD0",
"p.	c #709DD6",
"q.	c #6091CF",
"r.	c #5088CD",
"s.	c #5089CE",
"t.	c #5087CC",
"u.	c #5085CA",
"v.	c #5084C9",
"w.	c #5083C8",
"x.	c #5082C7",
"y.	c #5081C6",
"z.	c #5080C5",
"A.	c #507FC4",
"B.	c #507EC3",
"C.	c #507CC1",
"D.	c #507BC0",
"E.	c #507ABF",
"F.	c #5079BE",
"G.	c #5078BD",
"H.	c #5077BC",
"I.	c #5076BB",
"J.	c #0D44A4",
"K.	c #0062C8",
"L.	c #4889D3",
"M.	c #6E99D2",
"N.	c #477FC7",
"O.	c #467FC8",
"P.	c #4680C9",
"Q.	c #6795D1",
"R.	c #84A8D9",
"S.	c #84A8D8",
"T.	c #84A7D8",
"U.	c #84A6D7",
"V.	c #84A6D6",
"W.	c #638DCB",
"X.	c #4677C0",
"Y.	c #4675BE",
"Z.	c #4674BD",
"`.	c #4673BC",
" +	c #4672BB",
".+	c #4671BA",
"++	c #4670B9",
"@+	c #466FB8",
"#+	c #466EB7",
"$+	c #2051AA",
"%+	c #0054BA",
"&+	c #3377BB",
"*+	c #0769CC",
"=+	c #5C94D4",
"-+	c #5B89C9",
";+	c #3C75C1",
">+	c #3C76C2",
",+	c #3C77C3",
"'+	c #5B8BCB",
")+	c #B2C8E6",
"!+	c #98B3DB",
"~+	c #3C6EBA",
"{+	c #3C6DB9",
"]+	c #3C6CB8",
"^+	c #3C6BB7",
"/+	c #3C6AB6",
"(+	c #3C69B5",
"_+	c #3C68B4",
":+	c #3C67B3",
"<+	c #3C66B2",
"[+	c #2957AB",
"}+	c #0047AC",
"|+	c #146DC6",
"1+	c #136FCD",
"2+	c #5C93D4",
"3+	c #2972C7",
"4+	c #0C5FC0",
"5+	c #1A65BF",
"6+	c #2569BF",
"7+	c #2F6DBE",
"8+	c #326EBE",
"9+	c #326DBD",
"0+	c #336DBC",
"a+	c #F1F5FA",
"b+	c #92AFD9",
"c+	c #3266B6",
"d+	c #3265B5",
"e+	c #3264B4",
"f+	c #3263B3",
"g+	c #3262B2",
"h+	c #2F5FB0",
"i+	c #2657AD",
"j+	c #1A4FA9",
"k+	c #0C44A4",
"l+	c #013A9F",
"m+	c #0040A6",
"n+	c #0669CB",
"o+	c #5C92D4",
"p+	c #1B69C4",
"q+	c #0058BE",
"r+	c #0059BF",
"s+	c #005AC0",
"t+	c #005BC0",
"u+	c #065DBF",
"v+	c #0B5DBE",
"w+	c #105DBB",
"x+	c #145DBA",
"y+	c #185EB9",
"z+	c #D6E2F2",
"A+	c #85A6D7",
"B+	c #1856B1",
"C+	c #1452B0",
"D+	c #104EAE",
"E+	c #0B4AAC",
"F+	c #0646A9",
"G+	c #0041A6",
"H+	c #003FA5",
"I+	c #003DA3",
"J+	c #003BA1",
"K+	c #00389E",
"L+	c #003AA0",
"M+	c #2274CD",
"N+	c #5C91D2",
"O+	c #1362C0",
"P+	c #0056BC",
"Q+	c #0057BD",
"R+	c #0055BB",
"S+	c #D2E1F3",
"T+	c #78A0D6",
"U+	c #004BB1",
"V+	c #0049AF",
"W+	c #0047AD",
"X+	c #0044AA",
"Y+	c #0042A8",
"Z+	c #003EA4",
"`+	c #003CA2",
" @	c #00379D",
".@	c #1B71CC",
"+@	c #5C90D2",
"@@	c #0C5BBC",
"#@	c #0053B9",
"$@	c #D2E0F2",
"%@	c #0046AC",
"&@	c #00399F",
"*@	c #126DCB",
"=@	c #5C8FD0",
"-@	c #0E5BBB",
";@	c #0051B7",
">@	c #0048AE",
",@	c #00369C",
"'@	c #0467CB",
")@	c #0367CC",
"!@	c #598CCF",
"~@	c #145DBB",
"{@	c #0050B6",
"]@	c #004FB5",
"^@	c #0045AB",
"/@	c #0043A9",
"(@	c #0041A7",
"_@	c #00359B",
":@	c #116CC7",
"<@	c #4180CC",
"[@	c #2265BD",
"}@	c #004EB4",
"|@	c #004DB3",
"1@	c #D2DFF1",
"2@	c #00349A",
"3@	c #2C75BC",
"4@	c #0066CD",
"5@	c #2272CA",
"6@	c #3470C1",
"7@	c #004CB2",
"8@	c #0064CA",
"9@	c #0166CB",
"0@	c #427BC7",
"a@	c #004AB0",
"b@	c #0E6BC9",
"c@	c #2171C9",
"d@	c #1153B2",
"e@	c #D2DEF0",
"f@	c #4E80B3",
"g@	c #1860BD",
"h@	c #D5E0F1",
"i@	c #7A9BD1",
"j@	c #003399",
"k@	c #146CC5",
"l@	c #F9FBFD",
"m@	c #AABFE1",
"n@	c #0668CA",
"o@	c #0266CA",
"p@	c #0063C9",
"q@	c #5480C4",
"r@	c #D0DCEF",
"s@	c #EEF2F9",
"t@	c #B0C2E2",
"u@	c #1247A6",
"v@	c #0568CB",
"w@	c #0065CB",
"x@	c #0040A7",
"y@	c #0568CA",
"z@	c #5281AF",
"A@	c #0267CC",
"B@	c #005EC4",
"C@	c #0D6AC8",
"D@	c #156EC6",
"E@	c #0166CC",
"F@	c #0046AD",
"G@	c #0668C9",
"H@	c #3878B8",
"I@	c #2573C0",
"J@	c #0367CB",
"K@	c #186FC4",
"L@	c #3E7BB7",
"M@	c #457DB5",
"N@	c #417CB7",
"O@	c #4A7FB5",
"                                                                ",
"                      . + @ # $ % & * =                         ",
"                  - ; > , ' ) ! ~ { ] ^ / (                     ",
"              _ : < [ } | 1 1 ) ! ~ { 2 3 4 5 6                 ",
"            7 8 9 0 a a } | b c d ~ { 2 e f g h i               ",
"          j k l m n o o a p q r s t ~ { 2 e f u v w             ",
"        x y z A B B C D E F r r r G H I J K L M N O P           ",
"      = Q R S T T T U V W X r r r Y Z `  ...+.@.#.$.%.&.        ",
"    . *.=.-.;.>.>.>.;.,.'.).r r !.~.{.].^./.(._.:.<.[.}.        ",
"    |.1.2.3.4.5.5.4.3.6.7.8.9.0.a.b.c.d.e.f.g.h.i.j.k.l.m.      ",
"  n.o.p.q.r.s.s.s.s.r.t.u.v.w.x.y.z.A.B.C.D.E.F.G.H.I.J.K.      ",
"  n.L.M.N.O.P.P.P.P.O.Q.R.S.T.U.V.W.X.Y.Z.`. +.+++@+#+$+%+&+    ",
"  *+=+-+;+>+,+,+,+,+>+'+)+r r r r !+~+{+]+^+/+(+_+:+<+[+}+|+    ",
"  1+2+3+4+5+6+7+8+8+9+9+0+a+r r r b+c+d+e+f+g+h+i+j+k+l+m+n+    ",
"  % o+p+q+r+s+t+u+v+w+x+y+z+r r r A+B+C+D+E+F+G+H+I+J+K+L+n.    ",
"  M+N+O+P+Q+q+q+q+q+Q+P+R+S+r r r T+U+V+W+X+Y+m+Z+`+L+K+ @n.    ",
"  .@+@@@%+R+P+P+P+P+R+%+#@$@r r r T+V+W+%@X+Y+H+I+J+&@ @J+n.    ",
"  *@=@-@%.#@%+%+%+%+#@%.;@$@r r r H >@%@X+Y+m+Z+`+L+K+,@H+'@    ",
"  )@!@~@{@;@;@%.%.;@;@{@]@$@r r r I W+^@/@(@H+I+J+&@ @_@W+:@    ",
"  n.<@[@}@]@]@]@]@]@]@}@|@1@r r r I ^@/@Y+m+Z+`+L+K+,@2@q+3@    ",
"  4@5@6@7@7@|@|@|@|@7@7@U+1@r r r J X+Y+m+H+I+J+&@ @_@,@8@      ",
"    9@0@a@a@U+U+U+U+a@a@V+1@r r r L Y+m+H+I+J+L+K+,@2@|@b@      ",
"    . c@d@>@>@V+V+>@>@>@W+e@r r r L m+H+I+`+L+K+,@_@K+8@f@      ",
"      n.g@%@%@%@%@%@%@^@^@h@r r r i@Z+I+`+L+K+ @_@j@q+k@        ",
"        )@U+X+X+X+X+X+/@C+l@r r r m@I+J+L+K+ @_@2@{@n@          ",
"        o@p@U+Y+Y+Y+(@q@r@s@s@s@s@s@t@u@K+ @_@2@{@*             ",
"          v@w@{@x@H+H+H+Z+Z+I+`+J+L+&@K+,@_@ @Q+y@z@            ",
"              A@B@>@I+I+`+J+J+L+&@K+ @,@ @7@p@C@                ",
"                D@E@}.%.^@Z+L+K+L+Z+F@R+8@G@H@                  ",
"                    I@b@n.n.n.w@n.n.J@K@L@                      ",
"                            M@N@O@                              ",
"                                                                "};
