/* XPM */
static const char * question_xpm[] = {
"32 32 383 2",
"  	c None",
". 	c #0066CC",
"+ 	c #106ECE",
"@ 	c #257AD1",
"# 	c #3280D2",
"$ 	c #2F7ED1",
"% 	c #2377CE",
"& 	c #136ECD",
"* 	c #0467CB",
"= 	c #0C6CCD",
"- 	c #458CD6",
"; 	c #7BAADF",
"> 	c #8AB1E0",
", 	c #86ADDD",
"' 	c #81A8DB",
") 	c #80A7DA",
"! 	c #80A6D9",
"~ 	c #7EA4D8",
"{ 	c #6F9BD4",
"] 	c #4985CE",
"^ 	c #146BC9",
"/ 	c #0065CB",
"( 	c #0468CC",
"_ 	c #438AD5",
": 	c #93B9E4",
"< 	c #90B6E2",
"[ 	c #81ABDE",
"} 	c #80AADD",
"| 	c #80A9DC",
"1 	c #80A8DB",
"2 	c #80A5D8",
"3 	c #80A4D7",
"4 	c #7DA0D5",
"5 	c #4B81CA",
"6 	c #0862C5",
"7 	c #0367CB",
"8 	c #1370CE",
"9 	c #73A6DE",
"0 	c #A0C1E8",
"a 	c #84AFE1",
"b 	c #80ACDF",
"c 	c #80ABDE",
"d 	c #83ACDE",
"e 	c #91B5E1",
"f 	c #9ABAE3",
"g 	c #9BBAE2",
"h 	c #91B2DE",
"i 	c #81A6D9",
"j 	c #80A3D6",
"k 	c #80A2D5",
"l 	c #6E94CE",
"m 	c #1761BE",
"n 	c #0566C9",
"o 	c #1973CF",
"p 	c #7FADE1",
"q 	c #9DC0E8",
"r 	c #81AEE1",
"s 	c #80ADE0",
"t 	c #A0C1E7",
"u 	c #D5E4F4",
"v 	c #F5F8FC",
"w 	c #FCFDFE",
"x 	c #FFFFFF",
"y 	c #E8EFF8",
"z 	c #ACC4E5",
"A 	c #81A5D7",
"B 	c #80A1D4",
"C 	c #7598D0",
"D 	c #185CB8",
"E 	c #0565C8",
"F 	c #1270CE",
"G 	c #72A5DD",
"H 	c #98BCE5",
"I 	c #79A9DE",
"J 	c #78A8DE",
"K 	c #C8DCF1",
"L 	c #FDFEFF",
"M 	c #F8FBFD",
"N 	c #D1E0F3",
"O 	c #C2D5EE",
"P 	c #C4D6EE",
"Q 	c #DFE9F6",
"R 	c #FDFEFE",
"S 	c #D2DEF0",
"T 	c #7EA0D4",
"U 	c #789BD1",
"V 	c #789AD0",
"W 	c #688DCA",
"X 	c #0C53B4",
"Y 	c #0968C8",
"Z 	c #0569CD",
"` 	c #5895D8",
" .	c #93B8E2",
"..	c #72A3DB",
"+.	c #6EA1DB",
"@.	c #B3CEEC",
"#.	c #9ABBE3",
"$.	c #6E9DD7",
"%.	c #6E9CD6",
"&.	c #6E9BD4",
"*.	c #6E9AD3",
"=.	c #9DBAE1",
"-.	c #FBFCFE",
";.	c #C8D6EC",
">.	c #6E93CD",
",.	c #6E92CC",
"'.	c #6E91CA",
").	c #4B76BD",
"!.	c #0152B8",
"~.	c #1A6FC3",
"{.	c #3381D2",
"].	c #81ABDD",
"^.	c #72A1D9",
"/.	c #6499D7",
"(.	c #649AD7",
"_.	c #669CD8",
":.	c #EFF4FB",
"<.	c #C0D5EE",
"[.	c #6998D4",
"}.	c #6494D1",
"|.	c #6493D0",
"1.	c #6491CF",
"2.	c #6490CE",
"3.	c #C7D7ED",
"4.	c #82A1D3",
"5.	c #648AC7",
"6.	c #6488C6",
"7.	c #6387C5",
"8.	c #1E53AD",
"9.	c #005EC4",
"0.	c #4E80B2",
"a.	c #0B6CCD",
"b.	c #6098D7",
"c.	c #7DA5D9",
"d.	c #5B90D2",
"e.	c #5A91D3",
"f.	c #5A92D4",
"g.	c #679BD7",
"h.	c #92B3DF",
"i.	c #5A8CCD",
"j.	c #5A8BCC",
"k.	c #5A89CB",
"l.	c #5A88CA",
"m.	c #9DB8DF",
"n.	c #A5BBDF",
"o.	c #5A82C3",
"p.	c #5A80C2",
"q.	c #5A7FC1",
"r.	c #456FB9",
"s.	c #0049AF",
"t.	c #126CC6",
"u.	c #2E7DD1",
"v.	c #709DD6",
"w.	c #5F90CF",
"x.	c #5088CD",
"y.	c #5089CE",
"z.	c #5089CF",
"A.	c #528ACF",
"B.	c #E0EAF6",
"C.	c #FEFEFF",
"D.	c #7DA4D7",
"E.	c #5083C8",
"F.	c #5082C7",
"G.	c #5081C6",
"H.	c #5080C5",
"I.	c #96B2DC",
"J.	c #AABEE0",
"K.	c #5079BE",
"L.	c #5078BD",
"M.	c #5077BC",
"N.	c #4F75BA",
"O.	c #0F45A5",
"P.	c #0161C7",
"Q.	c #0166CC",
"R.	c #4C8CD4",
"S.	c #6E98D1",
"T.	c #477FC7",
"U.	c #467FC8",
"V.	c #4680C8",
"W.	c #4680C9",
"X.	c #6997D2",
"Y.	c #CBDBEF",
"Z.	c #D4E1F2",
"`.	c #90B0DC",
" +	c #487DC5",
".+	c #467BC4",
"++	c #467AC2",
"@+	c #4679C1",
"#+	c #4778C0",
"$+	c #C3D3EB",
"%+	c #86A2D2",
"&+	c #4671BA",
"*+	c #4670B8",
"=+	c #466FB7",
"-+	c #466EB6",
";+	c #2252AA",
">+	c #0052B8",
",+	c #2C74BD",
"'+	c #0B6BCD",
")+	c #5B93D4",
"!+	c #5888C9",
"~+	c #3C75C2",
"{+	c #3C76C2",
"]+	c #3C77C3",
"^+	c #3C74C1",
"/+	c #3C73C0",
"(+	c #3C72BF",
"_+	c #3C71BE",
":+	c #3C70BD",
"<+	c #759AD0",
"[+	c #E4EAF5",
"}+	c #3C68B5",
"|+	c #3C67B4",
"1+	c #3C66B3",
"2+	c #3C65B2",
"3+	c #2956AB",
"4+	c #0046AC",
"5+	c #1871CE",
"6+	c #5C93D4",
"7+	c #2972C8",
"8+	c #0E5FBF",
"9+	c #1C65BF",
"0+	c #276ABF",
"a+	c #2E6DBE",
"b+	c #326EBE",
"c+	c #326DBE",
"d+	c #326DBD",
"e+	c #326CBC",
"f+	c #326BBB",
"g+	c #326ABA",
"h+	c #3269B9",
"i+	c #6C92CC",
"j+	c #F2F5FA",
"k+	c #F0F4FA",
"l+	c #6085C4",
"m+	c #3261B1",
"n+	c #2F5EB0",
"o+	c #2758AD",
"p+	c #1C50AA",
"q+	c #033BA0",
"r+	c #003EA4",
"s+	c #0768C9",
"t+	c #2175CE",
"u+	c #5C92D4",
"v+	c #1867C3",
"w+	c #0058BE",
"x+	c #0059BF",
"y+	c #005AC0",
"z+	c #025BC0",
"A+	c #075DBF",
"B+	c #0C5DBE",
"C+	c #125EBC",
"D+	c #165FBB",
"E+	c #195EB9",
"F+	c #1B5EB8",
"G+	c #2865BA",
"H+	c #98B3DB",
"I+	c #F9FBFD",
"J+	c #FEFFFF",
"K+	c #D2DFF1",
"L+	c #3B70BE",
"M+	c #0D4CAC",
"N+	c #0747AA",
"O+	c #0242A7",
"P+	c #003FA5",
"Q+	c #003DA3",
"R+	c #003BA1",
"S+	c #00389E",
"T+	c #003BA0",
"U+	c #0465C9",
"V+	c #2376CE",
"W+	c #5B91D2",
"X+	c #0F5FBF",
"Y+	c #0056BC",
"Z+	c #0057BD",
"`+	c #0055BB",
" @	c #0154BA",
".@	c #B6CDEB",
"+@	c #CADAEF",
"@@	c #5B8BCC",
"#@	c #074EB1",
"$@	c #0047AD",
"%@	c #0044AA",
"&@	c #0042A8",
"*@	c #0040A6",
"=@	c #003CA2",
"-@	c #003AA0",
";@	c #00399F",
">@	c #0264C9",
",@	c #1F74CD",
"'@	c #5A8FD1",
")@	c #0C5CBD",
"!@	c #0054BA",
"~@	c #0053B9",
"{@	c #0A59BB",
"]@	c #E7EFF8",
"^@	c #9CBAE1",
"/@	c #024DB2",
"(@	c #00379D",
"_@	c #0365C9",
":@	c #146ECC",
"<@	c #5A8ED0",
"[@	c #0D5ABB",
"}@	c #0051B7",
"|@	c #0453B7",
"1@	c #3973C3",
"2@	c #004AB0",
"3@	c #0048AE",
"4@	c #00369C",
"5@	c #0668CA",
"6@	c #0769CC",
"7@	c #578BCF",
"8@	c #135CBB",
"9@	c #0050B6",
"0@	c #004FB5",
"a@	c #004EB4",
"b@	c #CBDBF0",
"c@	c #0D53B4",
"d@	c #0045AB",
"e@	c #0043A9",
"f@	c #0041A7",
"g@	c #00359B",
"h@	c #106BC7",
"i@	c #4583CD",
"j@	c #2063BD",
"k@	c #004DB3",
"l@	c #004CB2",
"m@	c #90B1DD",
"n@	c #C3D4EC",
"o@	c #00349A",
"p@	c #2673BF",
"q@	c #2374CC",
"r@	c #336FC1",
"s@	c #004BB1",
"t@	c #0064CA",
"u@	c #417AC7",
"v@	c #185AB6",
"w@	c #96B3DD",
"x@	c #BACDE9",
"y@	c #638DCC",
"z@	c #0245AA",
"A@	c #0D6AC7",
"B@	c #2272CB",
"C@	c #0F53B3",
"D@	c #0147AD",
"E@	c #BCCFE9",
"F@	c #5480C4",
"G@	c #0062C8",
"H@	c #427BB5",
"I@	c #1A62BD",
"J@	c #1151B0",
"K@	c #F4F7FB",
"L@	c #9AB3DB",
"M@	c #0265CA",
"N@	c #014BB1",
"O@	c #0244A9",
"P@	c #CFDBEF",
"Q@	c #678CC9",
"R@	c #0568CA",
"S@	c #2B60B5",
"T@	c #BCCDE7",
"U@	c #DEE6F3",
"V@	c #88A4D4",
"W@	c #0640A4",
"X@	c #0367CA",
"Y@	c #4F80B1",
"Z@	c #033EA3",
"`@	c #0467CA",
" #	c #4C7FB2",
".#	c #005CC2",
"+#	c #0061C7",
"@#	c #0C6AC8",
"##	c #0567CA",
"$#	c #0063C9",
"%#	c #2F76BC",
"&#	c #186EC4",
"*#	c #0B6AC8",
"=#	c #0267CB",
"-#	c #136CC6",
";#	c #3979B8",
">#	c #437CB5",
",#	c #407BB6",
"'#	c #497EB3",
"                                                                ",
"                      . + @ # $ % & * .                         ",
"                . = - ; > , ' ) ! ~ { ] ^ /                     ",
"              ( _ : < [ } | | 1 ) ! 2 3 4 5 6 7                 ",
"            8 9 0 a b b c d e f g h i 3 j k l m n               ",
"          o p q r s s t u v w x x w y z A k B C D E             ",
"        F G H I J ; K L M N O P Q R x x S T U V W X Y           ",
"      Z `  ...+.+.@.x x #.$.%.&.*.=.-.x x ;.>.,.'.).!.~.        ",
"    . {.].^./.(._.:.x x <.[.}.|.1.2.3.x x w 4.5.6.7.8.9.0.      ",
"    a.b.c.d.e.f.g.M x x x h.i.j.k.l.m.x x x n.o.p.q.r.s.t.      ",
"  . u.v.w.x.y.z.A.B.x x C.D.E.F.G.H.I.x x x J.K.L.M.N.O.P.      ",
"  Q.R.S.T.U.V.W.W.X.Y.Z.`. +.+++@+#+$+x x x %+&+*+=+-+;+>+,+    ",
"  '+)+!+~+{+]+]+]+]+{+~+^+/+(+_+:+<+-.x x [+&+}+|+1+2+3+4+t.    ",
"  5+6+7+8+9+0+a+b+c+d+e+e+f+g+h+i+j+x x k+l+m+n+o+p+O.q+r+s+    ",
"  t+u+v+w+x+y+z+A+B+C+D+E+F+G+H+I+x J+K+L+M+N+O+P+Q+R+S+T+U+    ",
"  V+W+X+Y+Z+w+w+w+w+Z+Y+`+ @.@x x +@@@#@$@%@&@*@r+=@-@S+;@>@    ",
"  ,@'@)@!@`+Y+Y+Y+Y+`+!@~@{@]@x ^@/@s.$@4+%@&@P+Q+R+;@(@-@_@    ",
"  :@<@[@>+~@~@!@!@~@~@>+}@|@B.x 1@2@3@4+%@&@*@P+=@-@S+4@r+5@    ",
"  6@7@8@9@}@}@>+>+}@}@9@0@a@b@x c@3@$@d@e@f@P+Q+R+;@(@g@$@h@    ",
"  . i@j@a@0@0@0@0@0@0@a@k@l@m@n@3@$@d@e@&@*@r+=@-@S+4@o@`+p@    ",
"  . q@r@l@l@k@k@k@k@l@l@s@2@s.3@$@d@%@&@*@P+Q+R+;@(@g@(@t@      ",
"    ( u@2@2@s@s@s@s@2@2@s.v@w@x@y@z@&@*@P+Q+R+-@S+4@o@s@A@      ",
"    . B@C@3@3@3@3@3@3@3@D@E@x x R F@*@P+Q+=@-@S+4@g@;@G@H@      ",
"      . I@4+4+4+4+4+4+d@J@K@x x x L@r+Q+=@-@S+(@g@o@Y+t.        ",
"        M@N@%@%@%@%@%@e@O@P@x x x Q@Q+R+-@S+(@g@o@a@R@          ",
"        . G@2@&@&@&@f@f@*@S@T@U@V@W@R+;@S+(@g@o@a@X@Y@          ",
"          . t@0@*@P+P+P+r+r+Q+Z@R+-@;@S+4@g@S+`+`@ #            ",
"              . .#$@Q+Q+=@R+R+-@;@S+(@4@(@2@+#@#                ",
"                ##Q.9.9@d@r+-@;@-@Q+4+~@$#5@%#                  ",
"                    &#*#=#/ $#$#t@/ R@-#;#                      ",
"                            >#,#'#                              ",
"                                                                "};
