/* XPM */
static const char *unknown_22_xpm[] = {
"22 22 137 2",
"  	c None",
". 	c #C6C6D5",
"+ 	c #C5C5D4",
"@ 	c #C3C3D2",
"# 	c #C3C3D3",
"$ 	c #C4C4D3",
"% 	c #C4C4D4",
"& 	c #C5C5D5",
"* 	c #9E9EB5",
"= 	c #8A8AA5",
"- 	c #C9C9D8",
"; 	c #D0D0DC",
"> 	c #CFCFDC",
", 	c #CFCFDB",
"' 	c #CECEDB",
") 	c #CDCDDA",
"! 	c #CBCBD9",
"~ 	c #CCCCD9",
"{ 	c #A9A9BE",
"] 	c #9797AF",
"^ 	c #C1C1D1",
"/ 	c #D9D9E3",
"( 	c #FCFCFD",
"_ 	c #F8F8FA",
": 	c #F5F5F7",
"< 	c #F1F1F5",
"[ 	c #EDEDF1",
"} 	c #EAEAF0",
"| 	c #E3E3EB",
"1 	c #DDDDE7",
"2 	c #E0E0E9",
"3 	c #D0D0DD",
"4 	c #AEAEC2",
"5 	c #9090AA",
"6 	c #C0C0D1",
"7 	c #DADAE4",
"8 	c #FFFFFF",
"9 	c #FBFBFC",
"0 	c #F5F5F8",
"a 	c #F1F1F4",
"b 	c #EFEFF3",
"c 	c #E7E7ED",
"d 	c #E1E1EA",
"e 	c #D3D3DF",
"f 	c #B9B9CA",
"g 	c #9999B1",
"h 	c #FDFDFE",
"i 	c #F9F9FB",
"j 	c #F6F6F9",
"k 	c #F4F4F7",
"l 	c #F0F0F4",
"m 	c #E8E8EE",
"n 	c #E2E2EA",
"o 	c #BCBCCD",
"p 	c #B0B0C3",
"q 	c #B2B2C5",
"r 	c #9595AE",
"s 	c #F3F3F7",
"t 	c #E9E9EF",
"u 	c #E4E4EC",
"v 	c #ACACC0",
"w 	c #9292AC",
"x 	c #9898B0",
"y 	c #9494AD",
"z 	c #EAEAEF",
"A 	c #D8D8E3",
"B 	c #BEBECF",
"C 	c #A1A1B8",
"D 	c #F6F6F8",
"E 	c #F1F1F6",
"F 	c #EBEBF1",
"G 	c #E5E5ED",
"H 	c #DCDCE5",
"I 	c #D2D2DE",
"J 	c #C9C9D7",
"K 	c #C6C6D4",
"L 	c #A5A5BA",
"M 	c #8F8FA9",
"N 	c #FDFDFD",
"O 	c #F4F4F8",
"P 	c #F2F2F6",
"Q 	c #ECECF1",
"R 	c #E7E7EE",
"S 	c #D4D4DF",
"T 	c #C8C8D6",
"U 	c #F8F8F9",
"V 	c #F3F3F6",
"W 	c #E6E6ED",
"X 	c #D1D1DD",
"Y 	c #A6A6BB",
"Z 	c #FCFCFC",
"` 	c #F2F2F5",
" .	c #EDEDF2",
"..	c #E5E5EC",
"+.	c #D8D8E2",
"@.	c #A8A8BD",
"#.	c #8E8EA8",
"$.	c #F0F0F5",
"%.	c #E0E0E8",
"&.	c #D7D7E2",
"*.	c #D5D5E0",
"=.	c #AAAABE",
"-.	c #F7F7F9",
";.	c #E9E9F0",
">.	c #E4E4EB",
",.	c #DFDFE7",
"'.	c #DBDBE5",
").	c #D6D6E1",
"!.	c #D5D5E1",
"~.	c #ABABBF",
"{.	c #F7F7FA",
"].	c #EBEBF0",
"^.	c #E3E3EA",
"/.	c #E1E1E9",
"(.	c #DEDEE7",
"_.	c #DDDDE6",
":.	c #D9D9E4",
"<.	c #8D8DA8",
"[.	c #F9F9FA",
"}.	c #DFDFE9",
"|.	c #DFDFE8",
"1.	c #DCDCE6",
"2.	c #E5E5EB",
"3.	c #DBDBE4",
"4.	c #C1C1D2",
"5.	c #D7D7E1",
"6.	c #ADADC1",
"7.	c #8D8DA7",
"8.	c #E6E6EC",
"9.	c #ABABC0",
"0.	c #9C9CB4",
"a.	c #A0A0B6",
"b.	c #A3A3B9",
"c.	c #A3A3B8",
"d.	c #A2A2B8",
"e.	c #A1A1B7",
"f.	c #9393AC",
"      . + @ # # # $ $ % . & * =             ",
"      + - ; > , ' ) ) ! ! ~ { ]             ",
"      ^ / ( _ : < [ } | 1 2 3 4 5           ",
"      6 7 8 9 _ 0 a b c 2 d e + f g         ",
"      ^ / h i j k l b m n d o p q r 5       ",
"      ^ / h i j s l b t u n v w ] x r y     ",
"      ^ / h _ j k < b z u 2 A > . B C 5     ",
"      ^ / h _ D k E l F G n H I J K L M     ",
"      ^ / N _ D O P < Q R | S T $ + L M     ",
"      ^ / ( U D k V < Q W 2 X J T J Y M     ",
"      ^ / Z D s ` b  ...H +.I ; > ; @.#.    ",
"      ^ +.i k P $.Q m %./ &.*.S e S =.#.    ",
"      ^ &.-.s ` b ;.>.,.'.'.A ).!.).~.#.    ",
"      ^ &.{.0 a ]...^./.(._.'./ &.:.v <.    ",
"      ^ +.[.s  .t ..>.n }.|.1.7 / 7 v <.    ",
"      ^ +.i ` F R W 2.n 2 |._.3.7 7 v <.    ",
"      ^ +._ l } c W ..n 2 |._.'.7 '.v <.    ",
"      ^ &.D Q t R W ..>.n |._.'.7 '.v <.    ",
"      4.5.: } R R ....^./.|.1.3.7 '.v <.    ",
"      # / -.Q } } m c ..| n |._._.1 6.7.    ",
"      ^ S b c 8...>.^.%.(.1 3./ A / 9.<.    ",
"      0.a.L b.b.b.c.d.d.d.C e.e.e.e.x f.    "};
