/* XPM */
static char * unknown_64_xpm[] = {
"64 64 455 2",
"  	c None",
". 	c #B7C3D9",
"+ 	c #BEC9DE",
"@ 	c #C1CDE0",
"# 	c #B7C4DA",
"$ 	c #B5C2D8",
"% 	c #B4C1D8",
"& 	c #B3C0D7",
"* 	c #B2BFD7",
"= 	c #B1BED6",
"- 	c #B0BDD5",
"; 	c #AFBDD5",
"> 	c #ADBBD3",
", 	c #ACBAD3",
"' 	c #ABBAD3",
") 	c #A9B8D1",
"! 	c #A7B6CF",
"~ 	c #A5B4CE",
"{ 	c #A3B3CE",
"] 	c #A1B1CC",
"^ 	c #9EAFCB",
"/ 	c #9AACC8",
"( 	c #97A8C4",
"_ 	c #95A6C2",
": 	c #91A2BE",
"< 	c #8E9FBB",
"[ 	c #8A9BB7",
"} 	c #8697B3",
"| 	c #A0AFC9",
"1 	c #A5B2CB",
"2 	c #D3DBE9",
"3 	c #F5F7FA",
"4 	c #EFF2F7",
"5 	c #EFF2F6",
"6 	c #EEF1F6",
"7 	c #EDF0F6",
"8 	c #ECF0F5",
"9 	c #EAEFF5",
"0 	c #E9EEF5",
"a 	c #E6ECF5",
"b 	c #E4EAF5",
"c 	c #E1E8F4",
"d 	c #DFE6F2",
"e 	c #DDE4F1",
"f 	c #D8E0EE",
"g 	c #D5DDEB",
"h 	c #D1DAE9",
"i 	c #CCD5E6",
"j 	c #C9D2E3",
"k 	c #C4CFE0",
"l 	c #C0CBDE",
"m 	c #BBC7DA",
"n 	c #AAB8D1",
"o 	c #A2B1CC",
"p 	c #9DABC5",
"q 	c #DBE1ED",
"r 	c #FFFFFF",
"s 	c #FDFFFF",
"t 	c #FAFDFF",
"u 	c #F7FBFF",
"v 	c #F5F8FF",
"w 	c #F2F7FE",
"x 	c #EDF2FA",
"y 	c #E9EFF8",
"z 	c #E5ECF6",
"A 	c #E0E7F3",
"B 	c #DCE3F1",
"C 	c #D7DFEE",
"D 	c #D2DBEB",
"E 	c #CCD6E7",
"F 	c #ABB9D3",
"G 	c #B8C4D9",
"H 	c #98A6BF",
"I 	c #DAE0EC",
"J 	c #FBFFFF",
"K 	c #F9FCFF",
"L 	c #F6FAFF",
"M 	c #F3F7FE",
"N 	c #F0F4FD",
"O 	c #EDF2FB",
"P 	c #E8EEF7",
"Q 	c #E4EBF5",
"R 	c #E1E8F3",
"S 	c #DCE4F0",
"T 	c #D3DBEB",
"U 	c #CDD7E7",
"V 	c #C8D2E3",
"W 	c #A8B7D1",
"X 	c #BECADE",
"Y 	c #B1BED5",
"Z 	c #DAE1ED",
"` 	c #FEFFFF",
" .	c #FBFEFF",
"..	c #F4F8FF",
"+.	c #F1F5FD",
"@.	c #EAEFF9",
"#.	c #E7ECF6",
"$.	c #E3E9F4",
"%.	c #DAE1EF",
"&.	c #D5DEEC",
"*.	c #CBD5E6",
"=.	c #A9B7D1",
"-.	c #BFCADF",
";.	c #CAD4E5",
">.	c #96A4BD",
",.	c #AFBCD4",
"'.	c #DAE1EC",
").	c #F5F9FF",
"!.	c #EEF3FC",
"~.	c #EBF0F9",
"{.	c #E8EDF7",
"].	c #DBE3F0",
"^.	c #D7DFED",
"/.	c #D3DBEA",
"(.	c #CDD7E8",
"_.	c #C2CDE1",
":.	c #D2DAEA",
"<.	c #AEBCD3",
"[.	c #9AA8C2",
"}.	c #B0BDD4",
"|.	c #FAFEFF",
"1.	c #F8FBFF",
"2.	c #F3F7FF",
"3.	c #F0F4FC",
"4.	c #EDF1FB",
"5.	c #E6ECF6",
"6.	c #E1E7F3",
"7.	c #DEE6F2",
"8.	c #D9E1EF",
"9.	c #CFD8E9",
"0.	c #C5D0E3",
"a.	c #D9E1EE",
"b.	c #CFD8E8",
"c.	c #ADBAD2",
"d.	c #98A5BE",
"e.	c #EFF3FC",
"f.	c #ECF0FA",
"g.	c #DCE3F0",
"h.	c #D0DAE9",
"i.	c #C8D2E4",
"j.	c #E2E8F4",
"k.	c #ABB9D2",
"l.	c #FCFFFF",
"m.	c #F2F6FE",
"n.	c #ECF1FA",
"o.	c #D9E0EE",
"p.	c #D2DBEA",
"q.	c #CAD4E6",
"r.	c #E0E6F2",
"s.	c #D5DDEC",
"t.	c #CBD4E6",
"u.	c #BFCADE",
"v.	c #F6F9FF",
"w.	c #EEF2FB",
"x.	c #EAF0F9",
"y.	c #DEE5F1",
"z.	c #DAE2EF",
"A.	c #D3DCEB",
"B.	c #CDD7E5",
"C.	c #F3F6FE",
"D.	c #E9EEF8",
"E.	c #BDC9DD",
"F.	c #F9FBFF",
"G.	c #F7FAFF",
"H.	c #EBF0FA",
"I.	c #CFD7E5",
"J.	c #E8EDF8",
"K.	c #D6DEEC",
"L.	c #CCD6E6",
"M.	c #BDC8DD",
"N.	c #AEBBD3",
"O.	c #97A4BD",
"P.	c #E7EDF7",
"Q.	c #A9B7D2",
"R.	c #D0D8E6",
"S.	c #D0D9E9",
"T.	c #C1CCE0",
"U.	c #AEBBD4",
"V.	c #F4F8FE",
"W.	c #EDF1FA",
"X.	c #E5EBF6",
"Y.	c #A9B8D2",
"Z.	c #E2E9F4",
"`.	c #CFD9E9",
" +	c #C6D1E3",
".+	c #ADBAD3",
"++	c #ADBBD4",
"@+	c #9DACC7",
"#+	c #A0AEC5",
"$+	c #A1AFC6",
"%+	c #A0AFC6",
"&+	c #9FAEC6",
"*+	c #9EADC5",
"=+	c #9CABC4",
"-+	c #9AAAC3",
";+	c #99A9C2",
">+	c #94A4C0",
",+	c #92A1BD",
"'+	c #8E9CB6",
")+	c #F2F6FD",
"!+	c #EFF3FB",
"~+	c #B2BFD5",
"{+	c #A7B5CD",
"]+	c #A6B4CC",
"^+	c #A5B3CB",
"/+	c #A3B2CB",
"(+	c #9FAEC8",
"_+	c #97A7C3",
":+	c #94A5C1",
"<+	c #93A4C0",
"[+	c #96A7C3",
"}+	c #8596B2",
"|+	c #72819C",
"1+	c #E5EAF5",
"2+	c #DEE5F2",
"3+	c #DDE4F0",
"4+	c #D6DEED",
"5+	c #D1D9E9",
"6+	c #CED7E8",
"7+	c #C9D3E5",
"8+	c #AEBCD5",
"9+	c #A7B6D0",
"0+	c #A5B4CF",
"a+	c #A2B1CD",
"b+	c #A5B5D1",
"c+	c #7A8BA8",
"d+	c #4E5F7A",
"e+	c #E8EEF8",
"f+	c #E3E9F5",
"g+	c #AEBCD4",
"h+	c #AAB8D2",
"i+	c #A6B5CF",
"j+	c #A8B7D2",
"k+	c #7F90AC",
"l+	c #52637D",
"m+	c #E3EAF5",
"n+	c #DBE2EF",
"o+	c #D8E0ED",
"p+	c #ACBBD3",
"q+	c #ACBAD4",
"r+	c #8292AE",
"s+	c #54647E",
"t+	c #F0F5FD",
"u+	c #C6D0E2",
"v+	c #BBC7DC",
"w+	c #B5C1D8",
"x+	c #B3C0D8",
"y+	c #B0BED6",
"z+	c #B0BED7",
"A+	c #8696B1",
"B+	c #566680",
"C+	c #F1F6FE",
"D+	c #EFF4FC",
"E+	c #C0CADF",
"F+	c #BAC6DB",
"G+	c #B8C5DA",
"H+	c #B6C3D9",
"I+	c #B5C2DA",
"J+	c #8999B4",
"K+	c #576782",
"L+	c #EBF1FA",
"M+	c #D0D8E8",
"N+	c #C2CDE0",
"O+	c #BDC9DE",
"P+	c #BBC7DD",
"Q+	c #B9C5DB",
"R+	c #B8C5DB",
"S+	c #B6C3DA",
"T+	c #B8C4DC",
"U+	c #8C9BB6",
"V+	c #596984",
"W+	c #C4CFE1",
"X+	c #C0CBDF",
"Y+	c #BCC7DC",
"Z+	c #B9C5DA",
"`+	c #8E9EB7",
" @	c #5B6B85",
".@	c #C7D1E3",
"+@	c #C3CEE1",
"@@	c #BCC8DD",
"#@	c #BCC8DC",
"$@	c #BAC6DC",
"%@	c #BECADF",
"&@	c #90A0B9",
"*@	c #5C6C86",
"=@	c #DBE2ED",
"-@	c #D1DAEA",
";@	c #CDD6E7",
">@	c #C5CFE2",
",@	c #C1CBDF",
"'@	c #BFCBDF",
")@	c #C1CDE1",
"!@	c #93A1BB",
"~@	c #5D6D88",
"{@	c #CDD6E6",
"]@	c #C5D0E2",
"^@	c #C4D0E3",
"/@	c #95A4BC",
"(@	c #5E6F89",
"_@	c #FCFEFF",
":@	c #F1F6FC",
"<@	c #EEF3FB",
"[@	c #C8D3E4",
"}@	c #C4CFE2",
"|@	c #C6D1E5",
"1@	c #97A5BE",
"2@	c #60708A",
"3@	c #FBFDFF",
"4@	c #D4DDEC",
"5@	c #C9D4E6",
"6@	c #99A7C0",
"7@	c #61718C",
"8@	c #D4DCEB",
"9@	c #C7D2E3",
"0@	c #CCD6E8",
"a@	c #9BA9C1",
"b@	c #62728D",
"c@	c #F8FCFF",
"d@	c #F5F9FE",
"e@	c #D5DCEC",
"f@	c #D3DCEA",
"g@	c #D1DBEA",
"h@	c #CAD5E6",
"i@	c #CED8E9",
"j@	c #9CAAC2",
"k@	c #63738E",
"l@	c #EFF4FB",
"m@	c #DDE5F1",
"n@	c #CFD9EA",
"o@	c #9DABC2",
"p@	c #62738D",
"q@	c #DFE5F2",
"r@	c #DBE2F0",
"s@	c #CED7E7",
"t@	c #D1DAEB",
"u@	c #9EACC3",
"v@	c #63748E",
"w@	c #FDFEFF",
"x@	c #E0E7F2",
"y@	c #DEE6F1",
"z@	c #D5DCEB",
"A@	c #D3DBEC",
"B@	c #A0ADC4",
"C@	c #657590",
"D@	c #D5DDED",
"E@	c #A1AEC6",
"F@	c #657690",
"G@	c #FEFEFF",
"H@	c #EAEEF8",
"I@	c #E7ECF7",
"J@	c #E4EAF6",
"K@	c #E3EAF4",
"L@	c #D9E0EF",
"M@	c #D7E0EE",
"N@	c #D6DEEE",
"O@	c #A2B0C6",
"P@	c #667691",
"Q@	c #F1F6FD",
"R@	c #ECF2FA",
"S@	c #E5EAF6",
"T@	c #A3B0C7",
"U@	c #677792",
"V@	c #F7FBFE",
"W@	c #E5EBF5",
"X@	c #A3B1C7",
"Y@	c #EAEFF8",
"Z@	c #E2E7F3",
"`@	c #D8E1EF",
" #	c #A4B1C8",
".#	c #F7FAFE",
"+#	c #DFE7F3",
"@#	c #DAE2F0",
"##	c #A5B2C8",
"$#	c #687893",
"%#	c #E6ECF7",
"&#	c #A5B2C9",
"*#	c #F6F9FE",
"=#	c #A6B3C9",
"-#	c #697994",
";#	c #D9E2EF",
">#	c #DBE3F1",
",#	c #A6B3CA",
"'#	c #697A95",
")#	c #ECF1F9",
"!#	c #DBE3EF",
"~#	c #A7B4CA",
"{#	c #6A7A95",
"]#	c #D8DFED",
"^#	c #FDFDFF",
"/#	c #F1F4FD",
"(#	c #FCFDFF",
"_#	c #E1E9F4",
":#	c #A7B4CB",
"<#	c #6A7B96",
"[#	c #A8B5CB",
"}#	c #6B7B96",
"|#	c #F9FBFE",
"1#	c #E4EAF4",
"2#	c #DCE4F2",
"3#	c #B1BED4",
"4#	c #DDE3EE",
"5#	c #F5FAFF",
"6#	c #F0F5FE",
"7#	c #EDF3FC",
"8#	c #ECF2FB",
"9#	c #E5ECF7",
"0#	c #E4EBF6",
"a#	c #E2E9F5",
"b#	c #E0E8F4",
"c#	c #DFE6F3",
"d#	c #DDE4F2",
"e#	c #DCE4F1",
"f#	c #E2E8F6",
"g#	c #AAB7CD",
"h#	c #B3C0D6",
"i#	c #D5DCE9",
"j#	c #F0F2F6",
"k#	c #DFE6EE",
"l#	c #D9E0EC",
"m#	c #D8DFEC",
"n#	c #D7DFEB",
"o#	c #D6DEEA",
"p#	c #D4DCE9",
"q#	c #D4DBE9",
"r#	c #D2DAE8",
"s#	c #D1D9E7",
"t#	c #D0D8E7",
"u#	c #CED7E6",
"v#	c #CDD6E5",
"w#	c #CCD5E5",
"x#	c #CBD4E4",
"y#	c #CAD4E3",
"z#	c #CAD3E3",
"A#	c #C9D2E2",
"B#	c #C7D1E1",
"C#	c #C6D0E1",
"D#	c #C6D1E1",
"E#	c #C5CFE0",
"F#	c #C4CEE0",
"G#	c #C4CEDF",
"H#	c #C3CDDF",
"I#	c #C8D1E3",
"J#	c #9FADC5",
"K#	c #6D7E99",
"L#	c #BAC5D8",
"M#	c #A7B2C5",
"N#	c #7C8CA8",
"O#	c #798AA6",
"P#	c #7A8BA7",
"Q#	c #7C8DAA",
"R#	c #72829C",
"S#	c #333A46",
"T#	c #333A45",
"U#	c #343B46",
"V#	c #3A414D",
"                                                                                                                                ",
"                                                                                                                                ",
"                                      . + @ # $ % % & * = - ; > , ' ) ! ~ { ] ^ / ( _ : < [ } | 1                               ",
"                                      * 2 3 4 5 6 6 6 6 6 7 7 8 9 0 a b c d e f g h i j k l m n o p                             ",
"                                      - q r r r r r r r r r r r r r s t u v w x y z A B C D E F ; G H                           ",
"                                      - I r r r r r r r r r r r s J K L M N O P Q R S f T U V W X h >                           ",
"                                      Y Z r r r r r r r r r r r `  .K u ..+.O @.#.$.d %.&.h *.=.-.e ;.> >.                      ",
"                                      ,.'.r r r r r r r r r r ` s J t u ).M !.~.{.b d ].^./.(.=._.b :.@ <.[.                    ",
"                                      }.'.r r r r r r r r r r r ` s |.1.).2.3.4.@.5.6.7.8.g 9.=.0.~.a.b.+ c.d.                  ",
"                                      - q r r r r r r r r r r r r s  .K L ..+.e.f.{.b 6.g.^.h.=.i.+.j.^.E + k.                  ",
"                                      - q r r r r r r r r r r r ` s l.t 1.).m.N n.P 5.R e o.p.W q.1.@.r.s.t.u.k.d.              ",
"                                      - q r r r r r r r r r r r r ` l.t 1.v...+.w.x.5.j.y.z.A.W B.r C.D.d s.*.E.c.[.            ",
"                                      - q r r r r r r r r r r r r r l.t F.G...+.e.H.5.$.d ].s.W I.r K +.J.r.K.L.M.N.O.          ",
"                                      - q r r r r r r r r r r r r ` l. .K G...m.3.n.P.b A e f Q.R.r r t M H.j.8.S.T.U.          ",
"                                      - q r r r r r r r r r r r r ` l. .t G.v.V.+.W.D.X.j.d %.Y.I.r r s 1.+.~.Z.f `. +.+O.      ",
"                                      - q r r r r r r r r r r r r r ` l. .t G.V.+.w.@.#.$.A z.++@+#+$+$+%+&+&+*+=+-+;+>+,+'+    ",
"                                      - q r r r r r r r r r r r r r ` s l.t L V.)+!+H.P b r.]. +~+{+]+^+/+(+_+_ :+:+<+[+}+|+    ",
"                                      - q r r r r r r r r r r r r r ` s  .K L ..)+e.n.D.1+A 2+3+z.4+5+6+7+-.8+Y.9+0+a+b+c+d+    ",
"                                      - q r r r r r r r r r r r r r ` s  .K G.).M 3.n.e+X.f+6.a.s./.b.*._.# g+k.h+W i+j+k+l+    ",
"                                      - q r r r r r r r r r r r r r r s J t 1.).M 3.n.@.P.m+d n+o+&.p.*.-.% - 8+p+k.n q+r+s+    ",
"                                      - q r r r r r r r r r r r r r r s l. .K G.V.t+w.H.J.b A g.%.^.:.u+v+w+x+* y+8+U.z+A+B+    ",
"                                      - q r r r r r r r r r r r r r r s l. .K 1.v C+D+H.e+X.j.2+n+s.i E+F+G+# H+% & = I+J+K+    ",
"                                      - q r r r r r r r r r r r r r r s J  .K G.v m.D+L+e+5.Z.A z.M+N+u.O+P+F+Q+R+S+% T+U+V+    ",
"                                      - q r r r r r r r r r r r r r r ` l.|.K G.v M 3.x @.P.m+%.5+7+W+T.X+u.Y+v+F+Z+. P+`+ @    ",
"                                      Y q r r r r r r r r r r r r r r ` s  .K 1.v...+.e.D.R ].p.t..@ ++@T.X+u.E.@@#@$@%@&@*@    ",
"                                      Y =@r r r r r r r r r r r r r r ` s l.t 1.).m.e.n.b z.-@;@;.i..@>@+@N+_.,@'@X O+)@!@~@    ",
"                                      Y q r r r r r r r r r r r r r r ` s l. .L t+H.5.R g.4+S.U {@t.i.i. +]@]@W+N+T.X+^@/@(@    ",
"                                      Y q r r r r r r r r r r r r ` _@t G.V.:@<@~.{.j.].K.p.S.S.6+i ;.;.[@.@ +]@}@W+N+|@1@2@    ",
"                                      Y q r r r r r r r r r r ` _@3@K u ).M +.n.5.6.g.f 4@p.h S.9.6+U i ;.7+i..@ +u+]@5@6@7@    ",
"                                      Y q r r r r r r r r r ` _@t 1.G.u ).M D+y R n+f ^.s.8@A.-@h S.b.6+;@L.*.7+i.9@.@0@a@b@    ",
"                                      Y q r r r r r r r ` s l. .|.t K c@d@w.b d 3+g.g.8.4+s.4+e@f@g@S.S.S.b.;@*.h@;.i.i@j@k@    ",
"                                      Y q r r r r r r ` ` s l.l.l. .1.l@P b 6.d m@B g.g.8.^.^.^.s./.-@p.h 9.6+;@i *.q.n@o@p@    ",
"                                      Y q r r r r r r r r ` l.` _@L 3.e+m+j.R A q@e g.g.r@8.^.f ^.s.4@A.p.h h b.s@;@L.t@u@v@    ",
"                                      Y q r r r r r r r r r s w@G.e.{.5.X.b Z.j.x@y@y.3+g.].f f f ^.4+z@f@p.p.-@9.6+s@A@B@C@    ",
"                                      Y q r r r r r r r r r ` v.!.D.D.D.P.X.b Z.Z.Z.A y@3+g.z.f f f 4+8@8@8@p.p.-@S.S.D@E@F@    ",
"                                      Y q r r r r r r r r G@c@t+n.@.@.H@I@J@b b K@$.6.y.y.y.g.%.8.L@M@^.4+s.A.8@/.-@S.N@O@P@    ",
"                                      Y q r r r r r r r r _@Q@O R@n.@.D.{.X.b S@b Z.j.d d d g.r@r@n+8.f C 4+s.8@8@/.-@C T@U@    ",
"                                      Y q r r r r r r r s V@<@O <@O @.D.e+P.W@X.b Z.Z.R A d e 3+g.g.%.o.f ^.4+s.8@8@p.C X@U@    ",
"                                      Y q r r r r r r r F.C+D+<@w.O n.Y@D.D.P.5.5.X.$.Z@r.d d e g.g.z.%.L@f ^.s.s.4@p.`@ #U@    ",
"                                      Y q r r r r r r ` .#N D+<@<@O ~.@.D.D.P.P.5.X.b Z.R +#d e e e g.z.8.f ^.4+D@s.8@@###$#    ",
"                                      Y q r r r r r r t d@+.3.<@<@O ~.@.D.D.P.P.%#X.X.m+j.A r.2+e g.g.z.8.o.f ^.K.8@8@r@&#$#    ",
"                                      Y q r r r r r r u M +.3.!+<@O ~.Y@D.D.P.P.P.5.X.X.$.6.6.x@y.g.g.%.%.%.f ^.s.8@8@r@&#$#    ",
"                                      Y q r r r r r r *#C+t+D+D+D+<@n.~.Y@D.D.P.P.P.X.X.$.6.6.r.2+e g.z.z.%.f 4+s.s.4+r@=#-#    ",
"                                      Y q r r r r r _@d@)+t+D+<@<@<@n.~.@.@.D.P.P.P.X.b Z.c 6.d y.e g.g.n+8.f f ^.4+4+r@=#-#    ",
"                                      Y q r r r r ` t V.m.t+D+<@O x ~.@.@.@.D.e+{.P.5.b K@$.A d d y.S g.].;#f f C 4+4+>#,#'#    ",
"                                      Y q r r r r w@G.M )++.D+<@O n.)#@.@.@.D.D.{.P.5.W@b $.A d d d e g.!#z.f f ^.^.4+B ~#{#    ",
"                                      Y q r r r r w@..+.+.+.D+<@<@<@<@~.@.@.D.P.P.P.5.X.b j.6.d y@y.e g.n+z.%.]#^.^.4+B ~#{#    ",
"                                      Y q r r r r ^#M +./#3.D+<@<@<@x ~.@.@.D.P.P.P.5.W@b $.6.d y.y.g.g.r@%.f ^.^.^.4+B ~#{#    ",
"                                      Y q r r r r ^#M +.3.D+<@<@<@<@~.~.~.@.D.P.P.P.5.X.b j.A A d e g.g.r@8.f f ^.^.^.>#~#{#    ",
"                                      Y q r r r r (#M +.3.D+<@<@<@x ~.~.@.@.D.P.P.P.5.X.b j.A A d e g.g.r@8.f f f ^.^.r@,#{#    ",
"                                      Y q r r r ` t M +.3.D+D+<@x n.~.@.@.@.D.P.P.P.5.1+K@_#A A d e g.g.r@8.f f f ^.s.>#~#{#    ",
"                                      Y q r r r w@1.+.+.t+D+<@O O n.~.@.@.D.P.P.P.P.X.b $.Z.A d d y.g.g.].%.f f f ^.s.>#:#<#    ",
"                                      Y q r r r 3@V.3.3.3.D+<@<@O n.x.@.D.D.e+P.P.P.5.$.$.Z.A d y.e g.].z.a.f f C 4+s.>#[#}#    ",
"                                      Y q r r r |#+.3.D+D+D+<@<@x H.@.@.@.D.D.P.P.P.5.1#Z.c A d 2+e g.z.a.f f f C 4+s.B [#}#    ",
"                                      Y q r r ` .#N +.D+D+D+<@n.~.~.@.@.@.D.P.P.P.P.X.1#R A A d 2+e g.n+a.f f f C 4+4+2#[#}#    ",
"                                      Y q r r F.M +.+.3.D+D+<@n.~.~.@.D.D.D.P.P.P.5.X.1#R A d y.y.e g.n+a.f f ^.^.4+4+B [#}#    ",
"                                      3#4#r r l.K 1.u L L L 5#2.m.m.6#N N N !.7#O 8#H.@.e+%#9#0#m+a#c b#c#2+2+d#e#B B f#g#<#    ",
"                                      h#i#j#k#l#m#m#n#o#o#o#o#p#q#2 r#r#r#r#s#t#R.R.u#v#w#x#y#z#A#B#C#D#C#E#E#F#G#H#H#I#J#K#    ",
"                                      G L#M#N#O#P#P#P#P#P#P#P#P#P#P#P#P#P#P#P#P#P#P#P#P#P#P#P#P#P#P#P#P#P#P#P#P#P#P#P#P#Q#R#    ",
"                                              S#T#S#S#S#S#S#S#S#S#S#S#S#S#S#S#S#S#S#S#S#S#U#U#U#U#U#U#U#U#U#U#U#U#U#U#S#V#      ",
"                                                                                                                                ",
"                                                                                                                                ",
"                                                                                                                                ",
"                                                                                                                                "};
