/* XPM */
static const char *unknown_48_xpm[] = {
"48 48 131 2",
"  	c None",
". 	c #B8C4DA",
"+ 	c #C3CEE1",
"@ 	c #B7C4DA",
"# 	c #B5C2D8",
"$ 	c #B4C1D8",
"% 	c #B3C0D7",
"& 	c #B2BFD7",
"* 	c #B0BDD5",
"= 	c #AFBDD5",
"- 	c #ACBAD3",
"; 	c #A9B8D1",
"> 	c #A6B5CF",
", 	c #A4B3CE",
"' 	c #A1B1CC",
") 	c #9DAECA",
"! 	c #98A9C5",
"~ 	c #95A6C2",
"{ 	c #90A1BD",
"] 	c #8C9DB9",
"^ 	c #8697B3",
"/ 	c #A6B4CE",
"( 	c #FFFFFF",
"_ 	c #FDFFFF",
": 	c #FBFEFF",
"< 	c #F8FBFF",
"[ 	c #F4F8FF",
"} 	c #F1F5FD",
"| 	c #EEF3FB",
"1 	c #E7EDF7",
"2 	c #E3E9F4",
"3 	c #DCE3F0",
"4 	c #D7DFED",
"5 	c #D0D9E9",
"6 	c #CAD4E5",
"7 	c #A5B4CF",
"8 	c #FEFFFF",
"9 	c #FCFFFF",
"0 	c #F9FCFF",
"a 	c #F5F9FF",
"b 	c #EDF2FB",
"c 	c #E6ECF6",
"d 	c #E2E9F4",
"e 	c #DBE3F0",
"f 	c #D6DEED",
"g 	c #CED7E8",
"h 	c #C7D1E3",
"i 	c #D2DBEA",
"j 	c #B9C5DB",
"k 	c #F6FAFF",
"l 	c #F2F6FE",
"m 	c #E9EEF8",
"n 	c #E4EAF5",
"o 	c #DFE6F2",
"p 	c #D8E0EE",
"q 	c #CBD5E6",
"r 	c #FAFDFF",
"s 	c #EFF3FC",
"t 	c #EAEFF9",
"u 	c #D4DCEB",
"v 	c #E5EBF6",
"w 	c #EEF2FB",
"x 	c #ECF1FA",
"y 	c #C0CBDF",
"z 	c #E9EFF8",
"A 	c #DAE1EF",
"B 	c #BFCADE",
"C 	c #F7FAFF",
"D 	c #F0F4FC",
"E 	c #E1E7F3",
"F 	c #F5F8FF",
"G 	c #CFD8E8",
"H 	c #DDE4F1",
"I 	c #C1CCE0",
"J 	c #F6F9FF",
"K 	c #F3F7FE",
"L 	c #EBF0F9",
"M 	c #C6D1E3",
"N 	c #DAE2EF",
"O 	c #8E9FBB",
"P 	c #8F9EB9",
"Q 	c #E8EDF7",
"R 	c #D9E1EE",
"S 	c #CCD5E6",
"T 	c #C8D2E4",
"U 	c #9FAFCB",
"V 	c #5B6C88",
"W 	c #C9D3E5",
"X 	c #BBC7DC",
"Y 	c #AEBCD4",
"Z 	c #ABB9D2",
"` 	c #A3B2CD",
" .	c #5D6E8A",
"..	c #B6C2D9",
"+.	c #B1BED6",
"@.	c #A7B6D0",
"#.	c #60718D",
"$.	c #EFF4FC",
"%.	c #E2E8F4",
"&.	c #BDC8DD",
"*.	c #B6C3D9",
"=.	c #637490",
"-.	c #EAF0F9",
";.	c #C2CDE0",
">.	c #BECADE",
",.	c #BCC8DD",
"'.	c #BAC6DB",
").	c #667793",
"!.	c #C5D0E2",
"~.	c #687995",
"{.	c #D3DCEB",
"].	c #CDD6E7",
"^.	c #6A7B97",
"/.	c #6C7D99",
"(.	c #6E7F9B",
"_.	c #70819D",
":.	c #F7FBFF",
"<.	c #DEE5F1",
"[.	c #D5DDEC",
"}.	c #71829E",
"|.	c #7384A0",
"1.	c #E0E7F3",
"2.	c #7485A1",
"3.	c #7586A2",
"4.	c #7687A3",
"5.	c #7788A4",
"6.	c #7889A5",
"7.	c #798AA6",
"8.	c #7A8BA7",
"9.	c #B2BCCE",
"0.	c #7C8CA8",
"                                                                                                ",
"                            . + @ # $ % & * = - - ; > , ' ) ! ~ { ] ^ /                         ",
"                            . ( ( ( ( ( ( ( ( _ : < [ } | 1 2 3 4 5 6 7 /                       ",
"                            . ( ( ( ( ( ( ( ( 8 9 0 a } b c d e f g h 7 i /                     ",
"                            j ( ( ( ( ( ( ( ( ( 9 0 k l b m n o p i q 7 3 6 /                   ",
"                            . ( ( ( ( ( ( ( ( 8 9 r k [ s t c o e u g 7 v u + /                 ",
"                            j ( ( ( ( ( ( ( ( ( 8 : < [ } w m 2 o 4 5 7 x o 5 y /               ",
"                            j ( ( ( ( ( ( ( ( ( _ 9 0 k l s z c o A i 7 [ t 3 g B /             ",
"                            j ( ( ( ( ( ( ( ( ( ( 9 0 C [ D x c E e u 7 9 F m 3 G B /           ",
"                            j ( ( ( ( ( ( ( ( ( ( 9 r < [ } b 1 2 H 4 7 ( 9 l m 3 5 I /         ",
"                            j ( ( ( ( ( ( ( ( ( ( 9 : < J K w m n o A 7 ( ( 9 K L o i M /       ",
"                            j ( ( ( ( ( ( ( ( ( ( 8 9 : C K D t c E N 7 O O O O O O O O O P     ",
"                            j ( ( ( ( ( ( ( ( ( ( 8 9 r k K D x Q E H R i S T I - > , U ) V     ",
"                            j ( ( ( ( ( ( ( ( ( ( 8 9 r C [ } x 1 n E 4 u G W X Y Z ; > `  .    ",
"                            j ( ( ( ( ( ( ( ( ( ( ( 9 : < a } x t v o N 4 i h ..+.= - Z @.#.    ",
"                            j ( ( ( ( ( ( ( ( ( ( ( _ : 0 C l $.t c %.3 p G &.. *.$ & * Y =.    ",
"                            j ( ( ( ( ( ( ( ( ( ( ( 9 : 0 J K $.-.1 d o u ;.>.,.'.j @ $ & ).    ",
"                            j ( ( ( ( ( ( ( ( ( ( ( 8 : 0 J [ D x 1 d u W !.I y &.X '.. *.~.    ",
"                            '.( ( ( ( ( ( ( ( ( ( ( 8 9 0 < [ } b o {.].T h + I I B >.,.'.^.    ",
"                            '.( ( ( ( ( ( ( ( ( ( ( 8 9 : [ b c o p 5 ].S T T !.!.+ I y >./.    ",
"                            '.( ( ( ( ( ( ( ( ( 8 : < K $.L Q E p i 5 5 ].q 6 T h !.!.+ I (.    ",
"                            '.( ( ( ( ( ( ( ( : 0 C k [ l z H p f u i 5 5 G ].q 6 T h M !._.    ",
"                            '.( ( ( ( ( ( _ 9 : r 0 :.} n <.3 3 p [.f u i 5 5 G ].q 6 T T }.    ",
"                            '.( ( ( ( ( 8 8 9 9 : C z d E o H 3 3 p 4 4 u i i 5 G ].S q W }.    ",
"                            '.( ( ( ( ( ( ( _ 8 [ m v n d E <.H 3 3 p p 4 f u i i 5 g ].S |.    ",
"                            '.( ( ( ( ( ( ( 8 K t m m v n d d 1.<.3 N p p f u u i i 5 5 g 2.    ",
"                            '.( ( ( ( ( ( ( k b L t m v n n 2 E <.o 3 A A p p f u u i 5 5 3.    ",
"                            '.( ( ( ( ( ( 9 | b | t m 1 n v d d 1.o H 3 3 A p 4 f u u i 5 4.    ",
"                            '.( ( ( ( ( ( K $.| b x m m 1 c v 2 E o o H 3 N A p 4 [.[.i i 4.    ",
"                            '.( ( ( ( ( : } $.| | L t m 1 1 v n d 1.o H H 3 N p 4 f [.u u 5.    ",
"                            '.( ( ( ( ( k l D | | L m m 1 1 c v n E E o 3 3 A A p 4 u u u 5.    ",
"                            '.( ( ( ( ( K } $.$.| x L m m 1 1 v v E E o H 3 N A p f [.f u 6.    ",
"                            '.( ( ( ( : K } $.| | x t t m 1 1 v 2 d E o <.3 3 N p p f f u 6.    ",
"                            '.( ( ( ( < K } $.| x L t t m m 1 c n n 1.o o H 3 N p p 4 f [.7.    ",
"                            '.( ( ( ( [ } } $.| | | t t m 1 1 c v 2 E o <.H 3 N A 4 4 f [.7.    ",
"                            '.( ( ( ( K } D $.| | x L t m 1 1 c n 2 E o <.3 3 A p 4 4 f [.7.    ",
"                            '.( ( ( ( K } $.| | | L L t m 1 1 c v 2 1.1.<.3 3 A p p 4 4 u 7.    ",
"                            '.( ( ( 9 K } $.$.| x L t t m 1 1 c n d 1.1.<.3 3 A p p 4 [.[.7.    ",
"                            '.( ( ( 0 } } $.| b x L t m 1 1 1 v 2 d 1.o <.3 3 N p p 4 [.[.8.    ",
"                            '.( ( ( K D $.$.| | x t t m m 1 1 c 2 d 1.o H 3 N p p p f [.[.8.    ",
"                            '.( ( _ } } $.$.| x L t t m 1 1 1 v 2 1.1.o H 3 N p p p f f f 8.    ",
"                            '.( ( F } } $.$.| x L t m m 1 1 c v 2 1.o <.H 3 N p p 4 f f [.8.    ",
"                            '.( r } } $.| | | L L m m m 1 c c n d 1.o <.3 N N p p 4 f f [.8.    ",
"                            '.9.0.8.8.8.8.8.8.8.8.8.8.8.8.8.8.8.8.8.8.8.8.8.8.8.8.8.8.8.8.8.    ",
"                                                                                                ",
"                                                                                                ",
"                                                                                                ",
"                                                                                                "};
