/* XPM */
static const char *unknown_32_xpm[] = {
"32 32 205 2",
"  	c None",
". 	c #B7C3D9",
"+ 	c #EAEEF4",
"@ 	c #E7EBF2",
"# 	c #E6EAF2",
"$ 	c #E5EAF2",
"% 	c #E5E9F1",
"& 	c #E3E8F1",
"* 	c #E0E6F0",
"= 	c #DBE3EF",
"- 	c #D6DEED",
"; 	c #D0DAE9",
"> 	c #C8D2E3",
", 	c #C1CCDE",
"' 	c #B7C3D7",
") 	c #AAB8D1",
"! 	c #B5C1D7",
"~ 	c #FFFFFF",
"{ 	c #FBFEFF",
"] 	c #F7FAFF",
"^ 	c #F0F4FD",
"/ 	c #E9EEF8",
"( 	c #E1E8F3",
"_ 	c #D9E0EE",
": 	c #CDD6E7",
"< 	c #B1BED6",
"[ 	c #CAD3E5",
"} 	c #A4B1C8",
"| 	c #B4C0D6",
"1 	c #F7FBFF",
"2 	c #F2F6FE",
"3 	c #EBF0FA",
"4 	c #E3EAF4",
"5 	c #DCE3F0",
"6 	c #D1DAEA",
"7 	c #B2BFD7",
"8 	c #C1CCDF",
"9 	c #B5C1D6",
"0 	c #FDFFFF",
"a 	c #F9FCFF",
"b 	c #F4F8FE",
"c 	c #EFF3FC",
"d 	c #E7EDF7",
"e 	c #E1E7F3",
"f 	c #D6DEEC",
"g 	c #B4C1D8",
"h 	c #EBF0F9",
"i 	c #D9E1EE",
"j 	c #BDC8DD",
"k 	c #A2AFC6",
"l 	c #FEFFFF",
"m 	c #FAFDFF",
"n 	c #F6F9FF",
"o 	c #F1F5FD",
"p 	c #E9EFF8",
"q 	c #E2E8F4",
"r 	c #D8E0EE",
"s 	c #F7FAFE",
"t 	c #D3DBEA",
"u 	c #F3F7FE",
"v 	c #E5EBF5",
"w 	c #B6C3D9",
"x 	c #F8FBFF",
"y 	c #BFCBDF",
"z 	c #A4B0C7",
"A 	c #FCFFFF",
"B 	c #EDF2FB",
"C 	c #E7ECF7",
"D 	c #DEE5F1",
"E 	c #B7C3DA",
"F 	c #B4BFD2",
"G 	c #B3BFD2",
"H 	c #AFBCD1",
"I 	c #AAB8CE",
"J 	c #A3B2CA",
"K 	c #9AA9C4",
"L 	c #F4F8FF",
"M 	c #DAE2EF",
"N 	c #D1DAE9",
"O 	c #CAD4E5",
"P 	c #B9C5DB",
"Q 	c #A9B8D1",
"R 	c #A4B3CE",
"S 	c #A0B0CB",
"T 	c #56657F",
"U 	c #EFF4FC",
"V 	c #EAEFF9",
"W 	c #E3E9F5",
"X 	c #DBE3F0",
"Y 	c #D4DDEB",
"Z 	c #CBD4E6",
"` 	c #B5C2D8",
" .	c #AEBCD4",
"..	c #AAB9D2",
"+.	c #A7B6D0",
"@.	c #56657E",
"#.	c #F1F6FD",
"$.	c #ECF1FA",
"%.	c #E5EBF6",
"&.	c #DFE5F2",
"*.	c #C2CDE0",
"=.	c #B3C0D7",
"-.	c #B0BDD5",
";.	c #596880",
">.	c #EDF2FA",
",.	c #E5ECF6",
"'.	c #C1CDE0",
").	c #BEC9DE",
"!.	c #BBC7DC",
"~.	c #B8C5DA",
"{.	c #B5C2D9",
"].	c #5C6B83",
"^.	c #B6C2D6",
"/.	c #F0F5FD",
"(.	c #D9E1EF",
"_.	c #CFD8E8",
":.	c #C9D2E4",
"<.	c #C6D0E2",
"[.	c #C2CDE1",
"}.	c #C1CCE0",
"|.	c #BECADE",
"1.	c #BCC8DD",
"2.	c #5F6E86",
"3.	c #FBFDFF",
"4.	c #F5F9FE",
"5.	c #F0F4FC",
"6.	c #DDE4F1",
"7.	c #D3DBEB",
"8.	c #CFD8E9",
"9.	c #CCD5E6",
"0.	c #C7D1E3",
"a.	c #C5D0E2",
"b.	c #C3CEE1",
"c.	c #617088",
"d.	c #FCFEFF",
"e.	c #E8EEF7",
"f.	c #D8DFEE",
"g.	c #D4DCEB",
"h.	c #D2DBEA",
"i.	c #D0D9E9",
"j.	c #CED7E8",
"k.	c #CCD6E6",
"l.	c #C8D2E4",
"m.	c #C6D1E3",
"n.	c #64738B",
"o.	c #F1F6FC",
"p.	c #E0E6F2",
"q.	c #DBE2F0",
"r.	c #D7DFED",
"s.	c #C9D3E5",
"t.	c #64738C",
"u.	c #EEF3FB",
"v.	c #E4EAF5",
"w.	c #DFE6F2",
"x.	c #DBE2EF",
"y.	c #D5DDEC",
"z.	c #66758E",
"A.	c #FDFEFF",
"B.	c #F2F6FD",
"C.	c #DAE1EF",
"D.	c #D3DCEB",
"E.	c #68768F",
"F.	c #EAEFF8",
"G.	c #E3E9F4",
"H.	c #697890",
"I.	c #E8EEF8",
"J.	c #E2E9F4",
"K.	c #D4DDEC",
"L.	c #E6ECF6",
"M.	c #6A7991",
"N.	c #F6F9FE",
"O.	c #E8EDF7",
"P.	c #E6ECF7",
"Q.	c #6A7992",
"R.	c #FCFDFF",
"S.	c #6B7A92",
"T.	c #FBFCFF",
"U.	c #D8DFED",
"V.	c #FAFCFF",
"W.	c #E0E7F3",
"X.	c #F7FBFE",
"Y.	c #E1E8F4",
"Z.	c #6C7B93",
"`.	c #DEE3EA",
" +	c #CCD4E1",
".+	c #C9D1E0",
"++	c #C8D1DF",
"@+	c #C7D0DF",
"#+	c #C6CFDE",
"$+	c #C5CEDD",
"%+	c #C4CDDD",
"&+	c #C2CCDC",
"*+	c #C2CBDB",
"=+	c #C0CADB",
"-+	c #BEC8D9",
";+	c #BDC7D9",
">+	c #BBC5D7",
",+	c #BAC5D7",
"'+	c #B9C4D6",
")+	c #B8C3D6",
"!+	c #B7C2D6",
"~+	c #B7C2D5",
"{+	c #6B7280",
"]+	c #4D5666",
"^+	c #4B5564",
"                                                                ",
"                  . + @ # $ % & * = - ; > , ' )                 ",
"                  ! ~ ~ ~ ~ ~ ~ { ] ^ / ( _ : < [ }             ",
"                  | ~ ~ ~ ~ ~ ~ { 1 2 3 4 5 6 7 5 8             ",
"                  9 ~ ~ ~ ~ ~ ~ 0 a b c d e f g h i j k         ",
"                  9 ~ ~ ~ ~ ~ ~ l m n o p q r g s / t j         ",
"                  9 ~ ~ ~ ~ ~ ~ l { ] u 3 v 5 w l x / i y z     ",
"                  9 ~ ~ ~ ~ ~ ~ l A a b B C D E F G H I J K     ",
"                  9 ~ ~ ~ ~ ~ ~ ~ 0 a L c / e M N O P Q R S T   ",
"                  9 ~ ~ ~ ~ ~ ~ ~ 0 m n U V W X Y Z `  ...+.@.  ",
"                  9 ~ ~ ~ ~ ~ ~ ~ 0 m ] #.$.%.&.t *.P w =.-.;.  ",
"                  9 ~ ~ ~ ~ ~ ~ ~ l m ] 2 >.,.X O '.).!.~.{.].  ",
"                  ^.~ ~ ~ ~ ~ ~ ~ l { x /.V (._.:.<.[.}.|.1.2.  ",
"                  ^.~ ~ ~ ~ ~ ~ l 3.4.5.d 6.7.8.9.O 0.a.b.}.c.  ",
"                  ^.~ ~ ~ ~ l d.a ] o e.5 f.g.h.i.j.k.O l.m.n.  ",
"                  ^.~ ~ ~ ~ 0 A m o.%.p.5 q.r.- t 6 _.: Z s.t.  ",
"                  ^.~ ~ ~ ~ l 3.u.d v.q w.6.x.r r.y.h.6 j.: z.  ",
"                  ^.~ ~ ~ ~ A.B.V / %.v.q w.6.C._ r.y.D.N i.E.  ",
"                  ^.~ ~ ~ ~ 4.u.>.F.d %.G.( w.6.q.(.r.y.g.6 H.  ",
"                  ^.~ ~ ~ 0 o u.>.V I.d %.J.w.D 5 M r - K.D.H.  ",
"                  ^.~ ~ ~ x o U >.V / d L.%.e p.5 x.(.r.g.g.M.  ",
"                  ^.~ ~ l N./.U B h / O.P.v.( p.6.5 (.r - y.Q.  ",
"                  ^.~ ~ R.b /.u.$.h V / d %.G.w.D 5 C.r r.y.S.  ",
"                  ^.~ ~ T.B.5.u.u.h V O.d %.q p.6.5 C.U.r.y.S.  ",
"                  ^.~ ~ V.B.U u.>.h V O.d %.q W.6.5 (.r r.y.S.  ",
"                  ^.~ ~ X.o U u.$.V / d P.v.Y.W.6.5 (.r - y.Z.  ",
"                  ^.~ ~ B.U U u.h V / d d v.( w.6.x.r r - y.Z.  ",
"                  ^.~ V.o 5.U >.h V I.d L.v.W.w.6.x.r r - - Z.  ",
"                  ^.`. +.+++@+#+$+%+%+&+*+=+-+;+>+,+'+)+!+~+Z.  ",
"                    {+]+^+^+^+^+^+^+^+^+^+^+^+^+^+^+^+^+^+^+    ",
"                                                                ",
"                                                                "};
