/* XPM */
static const char * warning_xpm[] = {
"32 32 247 2",
"  	c None",
". 	c #BA0000",
"+ 	c #B80000",
"@ 	c #C51212",
"# 	c #C51313",
"$ 	c #B70000",
"% 	c #F16C6C",
"& 	c #F37272",
"* 	c #B50000",
"= 	c #CD1F1F",
"- 	c #FEC9C9",
"; 	c #FECFCF",
"> 	c #D02222",
", 	c #B60303",
"' 	c #F67D7D",
") 	c #FFE4E4",
"! 	c #F88383",
"~ 	c #B70404",
"{ 	c #B10000",
"] 	c #D82C2C",
"^ 	c #FECACA",
"/ 	c #FFDBDB",
"( 	c #FFCDCD",
"_ 	c #D92F2F",
": 	c #AE0000",
"< 	c #B70808",
"[ 	c #FA8787",
"} 	c #FFD2D2",
"| 	c #FB8D8D",
"1 	c #B80808",
"2 	c #B00000",
"3 	c #AD0000",
"4 	c #E13939",
"5 	c #FFC2C2",
"6 	c #FDB4B4",
"7 	c #F45151",
"8 	c #F45353",
"9 	c #FDB2B2",
"0 	c #FFC5C5",
"a 	c #E43C3C",
"b 	c #AB0000",
"c 	c #BD0B0B",
"d 	c #FC8D8D",
"e 	c #FFBFBF",
"f 	c #F65656",
"g 	c #FEEDED",
"h 	c #FEF1F1",
"i 	c #F55353",
"j 	c #FC9292",
"k 	c #BF0C0C",
"l 	c #AC0000",
"m 	c #EB4242",
"n 	c #FFB5B5",
"o 	c #FC9090",
"p 	c #F99999",
"q 	c #FFFFFF",
"r 	c #F9A0A0",
"s 	c #FB8B8B",
"t 	c #FFB6B6",
"u 	c #ED4747",
"v 	c #A80000",
"w 	c #C40D0D",
"x 	c #FD9191",
"y 	c #FFACAC",
"z 	c #F65555",
"A 	c #FFFBFB",
"B 	c #8F8F8F",
"C 	c #FFFDFD",
"D 	c #F65858",
"E 	c #FFABAB",
"F 	c #FD9494",
"G 	c #C81010",
"H 	c #AA0101",
"I 	c #F34B4B",
"J 	c #FFA3A3",
"K 	c #FA6F6F",
"L 	c #FBC1C1",
"M 	c #363636",
"N 	c #FCC8C8",
"O 	c #FA6B6B",
"P 	c #AB0202",
"Q 	c #A40000",
"R 	c #CF1111",
"S 	c #FE8E8E",
"T 	c #FE9494",
"U 	c #F76D6D",
"V 	c #3C3C3C",
"W 	c #F87171",
"X 	c #FE9292",
"Y 	c #FE8F8F",
"Z 	c #D21313",
"` 	c #A10000",
" .	c #AD0101",
"..	c #F65151",
"+.	c #FF9191",
"@.	c #F95D5D",
"#.	c #FDDFDF",
"$.	c #424242",
"%.	c #FEE5E5",
"&.	c #F95B5B",
"*.	c #F75656",
"=.	c #AE0101",
"-.	c #A00000",
";.	c #DB1414",
">.	c #FF8484",
",.	c #FE7C7C",
"'.	c #FA8E8E",
").	c #4B4B4B",
"!.	c #FA9393",
"~.	c #FD7A7A",
"{.	c #FF8585",
"].	c #DF1616",
"^.	c #9F0000",
"/.	c #B40000",
"(.	c #FA5656",
"_.	c #FF7E7E",
":.	c #FA5A5A",
"<.	c #FFF4F4",
"[.	c #4F4F4F",
"}.	c #4E4E4E",
"|.	c #FCF4F4",
"1.	c #F95959",
"2.	c #FB5B5B",
"3.	c #B60000",
"4.	c #E81A1A",
"5.	c #FF7575",
"6.	c #FD6565",
"7.	c #FCB1B1",
"8.	c #5A5A5A",
"9.	c #FCFCFC",
"0.	c #F9F9F9",
"a.	c #F6B2B2",
"b.	c #FD6363",
"c.	c #EA1D1D",
"d.	c #9C0000",
"e.	c #BF0000",
"f.	c #F10000",
"g.	c #F31414",
"h.	c #F96464",
"i.	c #5B5B5B",
"j.	c #F6F6F6",
"k.	c #F3F2F2",
"l.	c #F76565",
"m.	c #C20000",
"n.	c #9B0000",
"o.	c #EC0000",
"p.	c #F30000",
"q.	c #F51C1C",
"r.	c #FDD2D2",
"s.	c #696969",
"t.	c #F3F3F3",
"u.	c #F0F0F0",
"v.	c #F0CACA",
"w.	c #F51F1F",
"x.	c #EE0000",
"y.	c #970000",
"z.	c #CC0000",
"A.	c #F40000",
"B.	c #F50505",
"C.	c #FA8383",
"D.	c #C3C3C3",
"E.	c #C1C1C1",
"F.	c #EDEDED",
"G.	c #EAEAEA",
"H.	c #F28080",
"I.	c #F50606",
"J.	c #CF0000",
"K.	c #950000",
"L.	c #F50000",
"M.	c #F83434",
"N.	c #FEEAEA",
"O.	c #E7E7E7",
"P.	c #E7D6D6",
"Q.	c #F73838",
"R.	c #A70000",
"S.	c #940000",
"T.	c #930000",
"U.	c #DB0000",
"V.	c #F70000",
"W.	c #F70D0D",
"X.	c #FDA8A8",
"Y.	c #646464",
"Z.	c #676767",
"`.	c #E4E4E4",
" +	c #E2E2E2",
".+	c #EC9C9C",
"++	c #F80F0F",
"@+	c #DE0000",
"#+	c #920000",
"$+	c #F80000",
"%+	c #FB5555",
"&+	c #FFF8F8",
"*+	c #2A2A2A",
"=+	c #DFDFDF",
"-+	c #DCD7D7",
";+	c #F75555",
">+	c #EA0000",
",+	c #F90000",
"'+	c #D7D7D7",
")+	c #D5D5D5",
"!+	c #DBDBDB",
"~+	c #D9D9D9",
"{+	c #EE8989",
"]+	c #8E0000",
"^+	c #FB0000",
"/+	c #FC2424",
"(+	c #FD6A6A",
"_+	c #FD6D6D",
":+	c #FB6D6D",
"<+	c #F96C6C",
"[+	c #F76B6B",
"}+	c #F66A6A",
"|+	c #F56969",
"1+	c #F66969",
"2+	c #F56868",
"3+	c #F56767",
"4+	c #F66767",
"5+	c #F66666",
"6+	c #F56565",
"7+	c #F56363",
"8+	c #FC2727",
"9+	c #C30000",
"0+	c #960000",
"a+	c #F60000",
"b+	c #FC0000",
"c+	c #EB0000",
"d+	c #E80000",
"e+	c #E70000",
"f+	c #E50000",
"g+	c #E40000",
"h+	c #E60000",
"i+	c #E90000",
"j+	c #EF0000",
"k+	c #F20000",
"l+	c #FD0000",
"m+	c #980000",
"n+	c #8B0000",
"o+	c #8A0000",
"p+	c #AA0000",
"q+	c #D70000",
"r+	c #D80000",
"s+	c #E20000",
"t+	c #E00000",
"u+	c #DF0000",
"v+	c #DD0000",
"w+	c #E10000",
"x+	c #880000",
"                                                                ",
"                                                                ",
"                              . .                               ",
"                            + @ # +                             ",
"                            $ % & $                             ",
"                          * = - ; > *                           ",
"                          , ' ) ) ! ~                           ",
"                        { ] ^ / / ( _ {                         ",
"                      : < [ } } } } | 1 2                       ",
"                      3 4 5 6 7 8 9 0 a 3                       ",
"                    b c d e f g h i e j k l                     ",
"                    b m n o p q q r s t u b                     ",
"                  v w x y z A B B C D E F G v                   ",
"                  H I J K L q M M q N O J 7 P                   ",
"                Q R S T U q q V V q q W X Y Z Q                 ",
"              `  ...+.@.#.q q $.$.q q %.&.+.*.=.`               ",
"              -.;.>.,.'.q q q ).).q q q !.~.{.].-.              ",
"            ^./.(._.:.<.q q q [.}.q q q |.1._.2.3.^.            ",
"            ^.4.5.6.7.q q q q 8.8.q q 9.0.a.b.5.c.^.            ",
"          d.e.f.g.h.C q q q q i.8.q 9.0.j.k.l.g.f.m.n.          ",
"          ^.o.p.q.r.q q q q q s.s.9.0.j.t.u.v.w.p.x.-.          ",
"        y.z.A.B.C.q q q q q q D.E.0.j.t.u.F.G.H.I.A.J.y.        ",
"      K.Q p.L.M.N.q q q q q q 9.0.j.t.u.F.G.O.P.Q.L.A.R.S.      ",
"      T.U.V.W.X.q q q q q q 9.Y.Z.t.u.F.G.O.`. +.+++V.@+T.      ",
"    #+2 $+$+%+&+q q q q q 9.0.*+*+u.F.G.O.`. +=+-+;+$+$+/.#+    ",
"    T.>+,+,+T q q q q q 9.0.j.'+)+F.G.O.`. +=+!+~+{+,+,+o.T.    ",
"  ]+e.^+^+^+/+(+_+_+:+<+<+[+[+}+|+1+2+2+3+4+5+6+7+8+^+^+^+9+]+  ",
"  0+a+b+b+b+,+A.f.x.c+d+e+f+g+g+g+h+e+i+o.j+k+L.,+l+l+b+b+V.m+n+",
"o+p+q+r+e+x.c+i+h+g+s+t+u+v+v+v+v+v+u+w+s+f+e+i+o.j+f.d+r+q+3 o+",
"  x+x+x+x+x+x+x+x+x+x+x+x+x+x+x+x+x+x+x+x+x+x+x+x+x+x+x+x+x+x+  ",
"                                                                ",
"                                                                "};
